<svg width="16" height="17" viewBox="0 0 16 17" fill="none" xmlns="http://www.w3.org/2000/svg">
<path d="M1.33203 8.49935C1.33203 12.1727 4.32536 15.166 7.9987 15.166C11.672 15.166 14.6654 12.1727 14.6654 8.49935C14.6654 4.82602 11.672 1.83268 7.9987 1.83268C4.32536 1.83268 1.33203 4.82602 1.33203 8.49935ZM10.3787 5.59935C10.5387 5.69268 10.6254 5.85935 10.6254 6.03268C10.6254 6.11935 10.6054 6.20602 10.552 6.28602L9.3187 8.35268C9.01203 8.86602 8.3387 9.24602 7.74536 9.24602L5.01203 9.24602C4.7387 9.24602 4.51203 9.01935 4.51203 8.74602C4.51203 8.47268 4.7387 8.24602 5.01203 8.24602L7.74536 8.24602C7.98536 8.24602 8.3387 8.04602 8.4587 7.83935L9.69203 5.77268C9.83203 5.53268 10.1387 5.45268 10.3787 5.59935Z" fill="#ACACAC"/>
</svg>
