<svg width="17" height="7" viewBox="0 0 17 7" fill="none" xmlns="http://www.w3.org/2000/svg">
<path opacity="0.5" d="M15.2195 2.14839C14.9852 2.02683 14.691 2.10767 14.5624 2.32891C14.4337 2.55017 14.5192 2.82808 14.7535 2.94961C15.33 3.24873 15.6606 3.58033 15.6606 3.8594C15.6606 4.20072 15.1486 4.72973 13.7115 5.19087C12.2917 5.6465 10.3943 5.89738 8.36896 5.89738C6.34359 5.89738 4.44624 5.6465 3.02646 5.19087C1.58933 4.72976 1.0773 4.20072 1.0773 3.8594C1.0773 3.58033 1.40794 3.24872 1.98443 2.94957C2.2187 2.82805 2.30426 2.55014 2.17556 2.32888C2.04686 2.10764 1.75271 2.0268 1.51838 2.14836C0.875613 2.48188 0.109375 3.04946 0.109375 3.8594C0.109375 4.48025 0.561458 5.36542 2.71508 6.05648C4.23252 6.5434 6.24044 6.81156 8.36896 6.81156C10.4975 6.81156 12.5054 6.5434 14.0228 6.05648C16.1765 5.36542 16.6285 4.48025 16.6285 3.8594C16.6285 3.04946 15.8623 2.48188 15.2195 2.14839Z" fill="white"/>
<path opacity="0.5" d="M4.42413 3.43484C5.48467 3.7116 6.88547 3.86404 8.36845 3.86404C9.85144 3.86404 11.2522 3.71163 12.3128 3.43484C13.6103 3.09628 14.2682 2.60614 14.2682 1.97818C14.2682 1.35018 13.6103 0.860105 12.3128 0.52154C12.0247 0.446382 11.7115 0.380459 11.3785 0.324219C11.1913 0.622669 11.0018 0.919834 10.8099 1.21569C11.1786 1.26678 11.5247 1.32942 11.839 1.40339C12.7938 1.62806 13.1427 1.88098 13.2144 1.97821C13.1427 2.07547 12.7939 2.32839 11.839 2.55302C10.9352 2.76566 9.77242 2.88696 8.54772 2.8978C8.48807 2.90195 8.42827 2.90406 8.36845 2.90414C8.30823 2.90414 8.2485 2.90185 8.18915 2.8978C6.96446 2.88696 5.80165 2.76569 4.89787 2.55302C3.943 2.32839 3.59418 2.07544 3.52247 1.97821C3.59418 1.88098 3.94303 1.62806 4.89791 1.40339C5.2122 1.32946 5.5583 1.26678 5.92697 1.21569C5.72883 0.910039 5.53932 0.61285 5.35845 0.324219C5.02542 0.380491 4.71213 0.446382 4.42413 0.52154C3.12664 0.860105 2.46875 1.35021 2.46875 1.97818C2.46875 2.60614 3.12664 3.09625 4.42413 3.43484Z" fill="white"/>
<mask id="mask0_1540_5707" style="mask-type:alpha" maskUnits="userSpaceOnUse" x="2" y="0" width="13" height="4">
<path opacity="0.5" d="M4.42413 3.43484C5.48467 3.7116 6.88547 3.86404 8.36845 3.86404C9.85144 3.86404 11.2522 3.71163 12.3128 3.43484C13.6103 3.09628 14.2682 2.60614 14.2682 1.97818C14.2682 1.35018 13.6103 0.860105 12.3128 0.52154C12.0247 0.446382 11.7115 0.380459 11.3785 0.324219C11.1913 0.622669 11.0018 0.919834 10.8099 1.21569C11.1786 1.26678 11.5247 1.32942 11.839 1.40339C12.7938 1.62806 13.1427 1.88098 13.2144 1.97821C13.1427 2.07547 12.7939 2.32839 11.839 2.55302C10.9352 2.76566 9.77242 2.88696 8.54772 2.8978C8.48807 2.90195 8.42827 2.90406 8.36845 2.90414C8.30823 2.90414 8.2485 2.90185 8.18915 2.8978C6.96446 2.88696 5.80165 2.76569 4.89787 2.55302C3.943 2.32839 3.59418 2.07544 3.52247 1.97821C3.59418 1.88098 3.94303 1.62806 4.89791 1.40339C5.2122 1.32946 5.5583 1.26678 5.92697 1.21569C5.72883 0.910039 5.53932 0.61285 5.35845 0.324219C5.02542 0.380491 4.71213 0.446382 4.42413 0.52154C3.12664 0.860105 2.46875 1.35021 2.46875 1.97818C2.46875 2.60614 3.12664 3.09625 4.42413 3.43484Z" fill="white"/>
</mask>
<g mask="url(#mask0_1540_5707)">
<rect width="2.25943" height="18.293" transform="matrix(0.853843 0.52053 -0.509809 0.860288 0.84375 -5.81445)" fill="white"/>
</g>
<mask id="mask1_1540_5707" style="mask-type:alpha" maskUnits="userSpaceOnUse" x="0" y="2" width="17" height="5">
<path opacity="0.5" d="M15.2195 2.14839C14.9852 2.02683 14.691 2.10767 14.5624 2.32891C14.4337 2.55017 14.5192 2.82808 14.7535 2.94961C15.33 3.24873 15.6606 3.58033 15.6606 3.8594C15.6606 4.20072 15.1486 4.72973 13.7115 5.19087C12.2917 5.6465 10.3943 5.89738 8.36896 5.89738C6.34359 5.89738 4.44624 5.6465 3.02646 5.19087C1.58933 4.72976 1.0773 4.20072 1.0773 3.8594C1.0773 3.58033 1.40794 3.24872 1.98443 2.94957C2.2187 2.82805 2.30426 2.55014 2.17556 2.32888C2.04686 2.10764 1.75271 2.0268 1.51838 2.14836C0.875613 2.48188 0.109375 3.04946 0.109375 3.8594C0.109375 4.48025 0.561458 5.36542 2.71508 6.05648C4.23252 6.5434 6.24044 6.81156 8.36896 6.81156C10.4975 6.81156 12.5054 6.5434 14.0228 6.05648C16.1765 5.36542 16.6285 4.48025 16.6285 3.8594C16.6285 3.04946 15.8623 2.48188 15.2195 2.14839Z" fill="white"/>
</mask>
<g mask="url(#mask1_1540_5707)">
<rect width="2.25943" height="18.293" transform="matrix(0.853843 0.52053 -0.509809 0.860288 -0.539062 -6.29297)" fill="white"/>
</g>
</svg>
