<svg width="169" height="171" viewBox="0 0 169 171" fill="none" xmlns="http://www.w3.org/2000/svg">
<path d="M108.219 -0.351256C112.993 2.13738 115.727 6.07449 121.7 5.83838C142.99 19.9305 154.798 37.7834 155.093 67.2804C153.799 86.2332 148.531 89.8925 138.249 105.181C130.066 116.168 119.533 125.185 107.419 131.57C95.5133 141.919 88.1456 140.905 76.9214 151.014C72.9099 157.767 67.6716 156.6 63.9656 151.783C60.3684 153.443 60.4917 151.84 59.0156 147.228C48.2561 128.237 40.7164 113.091 31.1429 99.2745C25.7479 86.169 22.2445 80.9517 20.4255 65.9683C18.6454 53.8709 21.7524 41.7754 25.6109 35.383C36.3156 11.2453 53.9715 -2.25774 79.0756 -3.13857C84.8066 0.389185 88.5707 -2.84378 95.2571 -3.09942C95.8296 0.374479 95.7613 -0.877059 96.1688 -3.1039C100.577 -5.70336 104.203 0.35227 108.219 -0.351256ZM25.8497 49.6205C24.787 54.8483 22.973 61.5051 25.1086 63.4518C25.1 73.7223 29.1888 81.0285 33.8439 93.1647C40.6989 115.073 52.4253 124.205 63.3981 144.876C66.2424 149.922 70.5624 150.767 73.6121 147.118C83.1401 143.813 96.9092 129.828 106.795 125.886C118.063 121.875 127.713 111.659 137.293 98.6919C144.7 91.4295 149.142 81.6669 149.751 71.3078C150.825 53.3179 149.951 40.2219 140.275 30.8391C127.744 9.9035 110.786 5.42201 88.6568 1.43076C59.3211 -0.914165 32.6265 22.4784 25.8497 49.6205Z" fill="#3E5553" fill-opacity="0.4"/>
<path d="M76.9204 109.287C79.6204 112.396 84.5803 109.599 87.3299 110.541C90.464 109.534 90.5038 114.366 90.4407 113.136C91.4904 112.97 89.0344 113.179 87.2436 115.526C71.0468 115.554 56.1213 111.212 46.2702 95.0224C36.8079 86.6103 34.6604 73.0207 36.4372 58.3319C38.6199 33.4937 63.5688 10.5229 90.8281 13.6295C108.394 13.1441 120.747 20.6867 129.725 36.5355C128.63 38.9802 130.16 35.8245 130.375 37.5857C131.269 38.1039 130.934 41.6948 129.592 41.0134C128.495 40.1449 128.054 39.7299 126.225 40.1631C124.272 41.0036 124.063 36.3363 121.554 34.0308C105.235 19.8886 80.8672 15.994 62.807 25.4639C53.2425 30.8771 47.1639 41.5846 43.4316 50.0826C42.3418 55.7399 40.2236 63.8164 41.2532 68.8333C42.8669 67.4392 41.064 72.275 42.9491 69.7373C48.1924 68.5341 52.7652 64.4627 57.289 62.467C57.5211 65.083 57.8646 60.39 58.1208 62.0593C59.7092 62.5032 59.979 63.1828 61.44 63.1214C62.0179 65.5531 61.7391 64.7802 60.3669 66.4017C56.4827 67.5913 52.845 71.157 50.6101 71.4164C48.7743 71.1693 45.2183 76.0606 43.8286 74.7909C43.4555 75.0279 43.1603 75.3696 42.9799 75.7734C42.7995 76.1772 42.7418 76.6251 42.8141 77.0614C46.6452 91.2989 54.4133 98.8883 67.2968 106.056C69.7964 106.941 72.787 110.815 76.9204 109.287Z" fill="#3E5553" fill-opacity="0.4"/>
<path d="M131.85 74.6668C133.729 64.5396 132.535 59.3537 130.605 49.6838C130.241 50.7454 130.05 48.9694 130.17 48.0445C129.62 46.0244 131.394 44.7683 131.737 45.6165C133.17 46.0755 132.998 46.9176 134.585 46.4392C134.539 48.5867 135.729 46.7006 135.216 47.8396C138.099 58.1629 139.055 63.3251 137.262 72.8132C132.601 94.593 119.924 107.076 99.5244 113.985C98.952 116.225 99.1765 116.084 98.6241 114.205C96.3466 115.316 96.5247 112.986 95.4781 112.473C94.8968 110.588 96.52 108.355 97.4184 109.472C99.7062 110.177 103.865 105.879 106.312 106.377C109.512 105.923 112.018 103.943 114.92 101.252C115.128 102.424 115.911 100.81 115.197 98.8435C106.292 89.718 99.1677 80.1076 91.3355 68.8564C88.7922 64.855 85.8376 61.1311 82.5201 57.7454C80.7485 55.2234 81.3865 56.2404 79.0447 57.0123C75.7119 56.5853 73.1424 58.8856 69.8993 61.6095C69.9522 60.6693 68.6403 61.7169 67.4018 62.1331C67.169 59.9626 66.1459 60.1442 65.6181 60.1959C64.8213 59.2541 65.828 57.9036 66.7453 57.6978C70.0703 56.4312 74.4526 53.2382 78.9225 51.6556C80.865 50.9039 83.8608 52.186 85.9432 54.1002C90.6521 59.4003 93.5154 63.6103 98.0773 69.3327C100.305 71.3206 99.8423 70.4653 103.049 70.4685C106.651 70.1161 108.884 69.38 112.574 65.6742C115.621 65.2255 118.54 63.4306 121.315 67.5394C124.183 69.9572 126.254 75.2017 129.492 77.8156C128.789 79.8736 129.947 76.7544 130.328 78.5841C131.355 79.0923 131.232 78.1725 131.048 77.5127C131.17 76.5288 131.44 75.5692 131.85 74.6668ZM128.148 85.1167C128.383 84.0865 128.01 84.7003 127.978 83.8217C124.3 79.8107 120.678 74.8499 117.097 70.1924C116.42 69.2577 116.245 69.1367 115.301 69.9037C111.823 72.0223 108.182 73.86 104.412 75.3994C103.442 76.4137 103.801 76.0397 104.13 76.9457C105.098 78.7775 105.97 78.8553 106.819 80.3255C110.692 85.5159 114.676 90.225 118.922 95.5611C119.283 96.8592 119.876 97.5417 120.605 95.9455C123.647 92.7223 126.191 89.0627 128.154 85.0878L128.148 85.1167Z" fill="#3E5553" fill-opacity="0.4"/>
<path d="M114.969 49.6665C113.929 54.2207 108.846 58.135 103.668 56.7902C102.412 56.6005 101.212 56.1412 100.149 55.4439C99.0871 54.7466 98.188 53.8277 97.5136 52.7501C96.8392 51.6725 96.4054 50.4616 96.2419 49.2003C96.0785 47.9391 96.1892 46.6572 96.5665 45.4425C96.8009 44.2055 97.2877 43.03 97.9963 41.9895C98.705 40.9491 99.6204 40.0661 100.685 39.3956C101.75 38.7252 102.941 38.2817 104.185 38.093C105.429 37.9042 106.698 37.9743 107.913 38.2987C112.979 39.2433 115.939 44.9341 114.969 49.6665ZM110.068 48.4862C110.226 47.9212 110.264 47.3295 110.18 46.749C110.096 46.1686 109.892 45.6122 109.581 45.1155C109.269 44.6189 108.857 44.193 108.371 43.8652C107.886 43.5374 107.337 43.315 106.76 43.2121C104.193 42.8891 101.764 44.4414 101.392 46.6867C101.188 47.8357 101.437 49.0192 102.089 49.9868C102.74 50.9543 103.743 51.6299 104.883 51.8707C105.447 52.0114 106.033 52.0342 106.606 51.9377C107.179 51.8412 107.726 51.6275 108.212 51.3098C108.699 50.9921 109.115 50.5774 109.434 50.0916C109.754 49.6057 109.969 49.0592 110.068 48.4862Z" fill="#3E5553" fill-opacity="0.4"/>
</svg>
