<svg width="1600" height="720" viewBox="0 0 1600 720" fill="none" xmlns="http://www.w3.org/2000/svg">
<g clip-path="url(#clip0_897_23350)">
<g clip-path="url(#clip1_897_23350)">
<path opacity="0.7" d="M-61.56 565.848C-83.5962 572.807 -75.0911 608.857 -68.8088 622.388L-78.957 1023.97H1649.15C1653.01 866.913 1658.42 549.031 1649.15 533.954C1637.55 515.107 1621.6 502.059 1583.91 468.715C1546.21 435.371 1531.72 445.519 1505.62 432.471C1479.52 419.423 1412.84 415.074 1334.55 396.227C1256.26 377.38 1289.61 387.529 1249.01 380.28C1208.42 373.031 1195.37 354.184 1160.58 335.338C1125.79 316.491 1118.42 304.769 1090.99 330.988C1089.52 332.397 1086.8 338.581 1075.04 342.586C1067.31 344.519 1041.41 348.095 999.657 346.935C947.466 345.486 972.112 348.385 932.969 351.285C893.825 354.184 901.074 346.936 850.333 358.534C799.592 370.132 806.84 367.232 798.142 374.481C789.443 381.73 769.147 359.983 741.602 367.232C714.056 374.481 706.808 373.031 685.061 380.28C663.315 387.529 664.765 386.079 605.325 399.127C545.885 412.175 587.928 404.926 553.134 422.323C518.34 439.72 516.89 428.122 484.996 438.27C453.101 448.418 471.948 441.169 438.604 449.868C405.26 458.566 400.91 455.667 361.767 467.265C322.624 478.863 338.571 471.614 316.825 474.513C299.428 476.833 279.615 473.547 271.883 471.614C267.533 472.58 249.846 477.123 213.893 487.561C199.395 490.461 203.744 494.81 180.548 509.307C157.352 523.805 150.104 528.154 142.855 532.504C135.606 536.853 128.357 544.102 122.558 548.451C116.759 552.8 77.616 545.552 60.219 545.552C42.822 545.552 9.47775 545.552 2.22899 547.002C-5.01977 548.451 -34.0147 557.15 -61.56 565.848Z" fill="#138888" fill-opacity="0.31"/>
<path opacity="0.7" d="M435.238 558.063C394.645 562.412 288.814 584.159 278.665 594.307L-31.125 695.121L-26.7188 902.21C432.369 907.525 1651.87 943.407 1653.03 930.649C1654.48 914.702 1668.98 724.784 1668.98 697.239C1668.98 669.694 1576.19 415.988 1573.29 407.289C1570.97 400.33 1546.23 373.462 1534.15 360.897C1509.5 348.816 1455.86 324.943 1438.47 326.103C1421.07 327.263 1408.99 329.486 1405.12 330.453C1394.97 329.969 1366.85 330.163 1335.53 334.802C1304.22 339.441 1300.26 333.835 1302.19 330.453C1294.46 328.52 1269.72 326.394 1232.6 333.352C1186.21 342.051 1168.81 346.4 1144.17 356.548C1119.52 366.697 1112.27 368.147 1090.53 375.395C1068.78 382.644 1041.23 397.141 1003.54 410.189C965.848 423.237 977.445 421.787 922.355 444.983C867.264 468.179 896.259 446.433 848.417 453.681C800.576 460.93 825.221 459.48 793.327 482.676C761.432 505.872 765.781 495.724 742.585 505.872C719.389 516.02 707.792 518.92 686.045 531.968C664.299 545.015 620.807 543.566 578.764 552.264C536.721 560.963 475.831 553.714 435.238 558.063Z" fill="#023939"/>
<path opacity="0.7" d="M21.416 394.407C13.205 391.509 -22.9231 383.684 -101.748 375.57L-120.57 881.23H1720.81V279.964C1688.06 267.397 1620.81 242.552 1613.86 243.711C1605.16 245.16 1595.02 248.058 1545.75 263.997C1496.49 279.936 1519.67 275.589 1471.86 295.875C1424.04 316.161 1442.88 304.569 1426.94 308.916C1411 313.263 1413.9 313.263 1373.32 324.855C1332.75 336.447 1360.28 330.651 1297.98 346.59C1235.67 362.529 1274.79 350.937 1240.02 358.182C1205.24 365.427 1215.38 361.08 1195.1 368.325C1174.81 375.57 1173.36 379.917 1145.83 394.407C1118.3 408.897 1132.79 403.101 1028.46 465.407C987.892 488.591 1006.73 465.407 992.239 465.407C977.75 465.407 953.117 468.305 940.076 468.305C927.035 468.305 913.994 456.713 906.749 453.815C899.504 450.917 880.667 445.121 873.422 440.774C866.177 436.428 848.789 436.428 827.055 427.734C805.585 419.146 803.909 419.041 781.525 417.643L780.687 417.591C757.503 416.142 750.258 421.938 743.013 423.387C735.768 424.836 731.421 426.285 640.135 442.223C606.808 450.917 624.196 443.672 587.971 445.121C551.746 446.57 563.338 443.672 540.154 445.121C531.461 445.121 514.073 442.223 443.072 436.427C406.847 430.632 418.439 439.325 398.153 446.57C381.925 452.366 380.766 453.815 382.215 453.815C374.97 454.781 355.843 457.003 337.296 458.162C314.112 459.611 321.357 463.958 306.867 471.203C292.377 478.448 285.132 479.897 266.295 487.142C251.226 492.938 240.697 490.523 237.316 488.591L225.724 485.693L203.989 478.448L189.499 466.856L170.662 458.162C165.832 455.264 153.274 448.889 141.682 446.57C130.09 444.252 107.872 437.876 98.2125 434.979C114.151 437.876 81.4042 429.472 72.1307 430.632C60.5387 432.081 57.6408 416.142 43.1509 407.448L21.416 394.407Z" fill="#092323"/>
</g>
<path opacity="0.7" d="M-61.56 565.848C-83.5962 572.807 -75.0911 608.857 -68.8088 622.388L-78.957 1023.97H1649.15C1653.01 866.913 1658.42 549.031 1649.15 533.954C1637.55 515.107 1621.6 502.059 1583.91 468.715C1546.21 435.371 1531.72 445.519 1505.62 432.471C1479.52 419.423 1412.84 415.074 1334.55 396.227C1256.26 377.38 1289.61 387.529 1249.01 380.28C1208.42 373.031 1195.37 354.184 1160.58 335.338C1125.79 316.491 1118.42 304.769 1090.99 330.988C1089.52 332.397 1086.8 338.581 1075.04 342.586C1067.31 344.519 1041.41 348.095 999.657 346.935C947.466 345.486 972.112 348.385 932.969 351.285C893.825 354.184 901.074 346.936 850.333 358.534C799.592 370.132 806.84 367.232 798.142 374.481C789.443 381.73 769.147 359.983 741.602 367.232C714.056 374.481 706.808 373.031 685.061 380.28C663.315 387.529 664.765 386.079 605.325 399.127C545.885 412.175 587.928 404.926 553.134 422.323C518.34 439.72 516.89 428.122 484.996 438.27C453.101 448.418 471.948 441.169 438.604 449.868C405.26 458.566 400.91 455.667 361.767 467.265C322.624 478.863 338.571 471.614 316.825 474.513C299.428 476.833 279.615 473.547 271.883 471.614C267.533 472.58 249.846 477.123 213.893 487.561C199.395 490.461 203.744 494.81 180.548 509.307C157.352 523.805 150.104 528.154 142.855 532.504C135.606 536.853 128.357 544.102 122.558 548.451C116.759 552.8 77.616 545.552 60.219 545.552C42.822 545.552 9.47775 545.552 2.22899 547.002C-5.01977 548.451 -34.0147 557.15 -61.56 565.848Z" fill="#138888" fill-opacity="0.31"/>
<path opacity="0.7" d="M435.238 558.063C394.645 562.412 288.814 584.159 278.665 594.307L-31.125 695.121L-26.7188 902.21C432.369 907.525 1651.87 943.407 1653.03 930.649C1654.48 914.702 1668.98 724.784 1668.98 697.239C1668.98 669.694 1576.19 415.988 1573.29 407.289C1570.97 400.33 1546.23 373.462 1534.15 360.897C1509.5 348.816 1455.86 324.943 1438.47 326.103C1421.07 327.263 1408.99 329.486 1405.12 330.453C1394.97 329.969 1366.85 330.163 1335.53 334.802C1304.22 339.441 1300.26 333.835 1302.19 330.453C1294.46 328.52 1269.72 326.394 1232.6 333.352C1186.21 342.051 1168.81 346.4 1144.17 356.548C1119.52 366.697 1112.27 368.147 1090.53 375.395C1068.78 382.644 1041.23 397.141 1003.54 410.189C965.848 423.237 977.445 421.787 922.355 444.983C867.264 468.179 896.259 446.433 848.417 453.681C800.576 460.93 825.221 459.48 793.327 482.676C761.432 505.872 765.781 495.724 742.585 505.872C719.389 516.02 707.792 518.92 686.045 531.968C664.299 545.015 620.807 543.566 578.764 552.264C536.721 560.963 475.831 553.714 435.238 558.063Z" fill="#023939"/>
<path opacity="0.7" d="M21.416 394.407C13.205 391.509 -22.9231 383.684 -101.748 375.57L-120.57 881.23H1720.81V279.964C1688.06 267.397 1620.81 242.552 1613.86 243.711C1605.16 245.16 1595.02 248.058 1545.75 263.997C1496.49 279.936 1519.67 275.589 1471.86 295.875C1424.04 316.161 1442.88 304.569 1426.94 308.916C1411 313.263 1413.9 313.263 1373.32 324.855C1332.75 336.447 1360.28 330.651 1297.98 346.59C1235.67 362.529 1274.79 350.937 1240.02 358.182C1205.24 365.427 1215.38 361.08 1195.1 368.325C1174.81 375.57 1173.36 379.917 1145.83 394.407C1118.3 408.897 1132.79 403.101 1028.46 465.407C987.892 488.591 1006.73 465.407 992.239 465.407C977.75 465.407 953.117 468.305 940.076 468.305C927.035 468.305 913.994 456.713 906.749 453.815C899.504 450.917 880.667 445.121 873.422 440.774C866.177 436.428 848.789 436.428 827.055 427.734C805.585 419.146 803.909 419.041 781.525 417.643L780.687 417.591C757.503 416.142 750.258 421.938 743.013 423.387C735.768 424.836 731.421 426.285 640.135 442.223C606.808 450.917 624.196 443.672 587.971 445.121C551.746 446.57 563.338 443.672 540.154 445.121C531.461 445.121 514.073 442.223 443.072 436.427C406.847 430.632 418.439 439.325 398.153 446.57C381.925 452.366 380.766 453.815 382.215 453.815C374.97 454.781 355.843 457.003 337.296 458.162C314.112 459.611 321.357 463.958 306.867 471.203C292.377 478.448 285.132 479.897 266.295 487.142C251.226 492.938 240.697 490.523 237.316 488.591L225.724 485.693L203.989 478.448L189.499 466.856L170.662 458.162C165.832 455.264 153.274 448.889 141.682 446.57C130.09 444.252 107.872 437.876 98.2125 434.979C114.151 437.876 81.4042 429.472 72.1307 430.632C60.5387 432.081 57.6408 416.142 43.1509 407.448L21.416 394.407Z" fill="#092323"/>
</g>
<defs>
<clipPath id="clip0_897_23350">
<rect width="1600" height="720" fill="white"/>
</clipPath>
<clipPath id="clip1_897_23350">
<rect width="1600" height="913" fill="white" transform="translate(0 -193)"/>
</clipPath>
</defs>
</svg>
