<svg width="375" height="314" viewBox="0 0 375 314" fill="none" xmlns="http://www.w3.org/2000/svg">
<path opacity="0.7" d="M-252.151 160.452C-263.399 164.004 -259.058 182.406 -255.851 189.313L-261.031 394.298H621.069C623.042 314.129 625.805 151.868 621.069 144.172C615.148 134.552 607.008 127.891 587.768 110.871C568.528 93.8507 561.127 99.0308 547.807 92.3706C534.487 85.7105 500.446 83.4904 460.485 73.8702C420.524 64.25 437.545 69.4301 416.824 65.73C396.104 62.0299 389.443 52.4097 371.683 42.7894C353.923 33.1692 350.164 27.1861 336.162 40.5692C335.41 41.2883 334.021 44.4452 328.022 46.4895C324.075 47.4762 310.854 49.3014 289.541 48.7094C262.901 47.9694 275.481 49.4494 255.5 50.9295C235.52 52.4095 239.22 48.7096 213.32 54.6298C187.419 60.5499 191.119 59.0698 186.679 62.7699C182.239 66.47 171.879 55.3697 157.818 59.0698C143.758 62.7699 140.058 62.0299 128.958 65.7299C117.857 69.43 118.597 68.6901 88.2567 75.3503C57.916 82.0104 79.3764 78.3103 61.6161 87.1905C43.8557 96.0707 43.1156 90.1505 26.8353 95.3306C10.5549 100.511 20.1751 96.8106 3.15472 101.251C-13.8657 105.691 -16.0857 104.211 -36.0662 110.131C-56.0466 116.051 -47.9064 112.351 -59.0067 113.831C-67.8869 115.015 -78.0004 113.338 -81.9472 112.351C-84.1672 112.844 -93.1954 115.163 -111.548 120.491C-118.948 121.971 -116.728 124.191 -128.568 131.591C-140.409 138.992 -144.109 141.212 -147.809 143.432C-151.509 145.652 -155.209 149.352 -158.169 151.572C-161.129 153.792 -181.109 150.092 -189.99 150.092C-198.87 150.092 -215.89 150.092 -219.59 150.832C-223.29 151.572 -238.091 156.012 -252.151 160.452Z" fill="#138888" fill-opacity="0.31"/>
<path opacity="0.7" d="M1.43535 156.478C-19.2851 158.698 -73.3064 169.798 -78.4865 174.979L-236.617 226.438L-234.368 332.146C-0.0294495 334.859 622.458 353.175 623.05 346.662C623.79 338.522 631.19 241.58 631.19 227.52C631.19 213.459 583.829 83.9564 582.349 79.5163C581.165 75.9642 568.535 62.2494 562.369 55.8359C549.788 49.6691 522.408 37.4835 513.528 38.0755C504.647 38.6675 498.48 39.8022 496.507 40.2955C491.327 40.0489 476.971 40.1475 460.986 42.5156C445.002 44.8837 442.979 42.0223 443.966 40.2956C440.019 39.3089 427.39 38.2237 408.445 41.7758C384.765 46.2159 375.884 48.4359 363.304 53.616C350.724 58.7961 347.024 59.5363 335.923 63.2364C324.823 66.9364 310.763 74.3365 291.522 80.9966C272.282 87.6568 278.202 86.9168 250.081 98.757C221.96 110.597 236.761 99.4969 212.34 103.197C187.92 106.897 200.5 106.157 184.22 117.997C167.939 129.837 170.159 124.657 158.319 129.837C146.479 135.018 140.559 136.498 129.458 143.158C118.358 149.818 96.1575 149.078 74.697 153.518C53.2365 157.958 22.1559 154.258 1.43535 156.478Z" fill="#023939"/>
<path opacity="0.7" d="M-209.797 72.9418C-213.989 71.4626 -232.43 67.4686 -272.666 63.3268L-282.273 321.438H657.647V14.525C640.929 8.1101 606.605 -4.5717 603.055 -3.98C598.617 -3.24037 593.44 -1.76107 568.292 6.37485C543.145 14.5108 554.979 12.292 530.571 22.6468C506.163 33.0016 515.779 27.0845 507.643 29.3034C499.507 31.5223 500.986 31.5225 480.276 37.4395C459.567 43.3565 473.62 40.3981 441.816 48.5341C410.012 56.67 429.982 50.7528 412.23 54.451C394.479 58.1491 399.657 55.9303 389.302 59.6284C378.947 63.3266 378.208 65.5455 364.155 72.9418C350.102 80.3381 357.498 77.3795 304.245 109.184C283.535 121.018 293.15 109.184 285.754 109.184C278.358 109.184 265.784 110.663 259.127 110.663C252.471 110.663 245.814 104.746 242.116 103.267C238.418 101.787 228.803 98.8288 225.104 96.6099C221.406 94.391 212.531 94.391 201.436 89.9532C190.477 85.5695 189.622 85.5161 178.196 84.8026L177.768 84.7758C165.934 84.0362 162.236 86.9947 158.538 87.7343C154.84 88.474 152.621 89.2136 106.024 97.3495C89.0127 101.787 97.8882 98.0892 79.3975 98.8288C60.9068 99.5684 66.8238 98.0892 54.9898 98.8288C50.552 98.8288 41.6765 97.3495 5.43463 94.391C-13.0561 91.4325 -7.13904 95.8703 -17.4939 99.5684C-25.7777 102.527 -26.3694 103.267 -25.6298 103.267C-29.3279 103.76 -39.091 104.894 -48.5583 105.485C-60.3923 106.225 -56.6942 108.444 -64.0905 112.142C-71.4867 115.84 -75.1849 116.58 -84.8001 120.278C-92.4922 123.237 -97.8669 122.004 -99.5927 121.018L-105.51 119.538L-116.604 115.84L-124 109.923L-133.616 105.485C-136.081 104.006 -142.491 100.752 -148.408 99.5684C-154.325 98.385 -165.666 95.1306 -170.597 93.6514C-162.461 95.1306 -179.177 90.8408 -183.91 91.4325C-189.827 92.1721 -191.307 84.0362 -198.703 79.5984L-209.797 72.9418Z" fill="#092323"/>
</svg>
