<svg width="50" height="50" viewBox="0 0 50 50" fill="none" xmlns="http://www.w3.org/2000/svg">
<rect x="0.833333" y="0.833333" width="48.3333" height="48.3333" rx="24.1667" stroke="#303030" stroke-width="1.66667"/>
<path d="M34.0485 14.4453H15.9485C15.1192 14.4453 14.4453 15.1286 14.4453 15.9674V34.0344C14.4453 34.8731 15.1192 35.5564 15.9485 35.5564H34.0485C34.8779 35.5564 35.5564 34.8731 35.5564 34.0344V15.9674C35.5564 15.1286 34.8779 14.4453 34.0485 14.4453ZM20.8258 32.5406H17.6968V22.4656H20.8305V32.5406H20.8258ZM19.2613 21.0897C18.2576 21.0897 17.447 20.2744 17.447 19.2754C17.447 18.2764 18.2576 17.4612 19.2613 17.4612C20.2603 17.4612 21.0755 18.2764 21.0755 19.2754C21.0755 20.2791 20.265 21.0897 19.2613 21.0897ZM32.5547 32.5406H29.4257V27.6398C29.4257 26.4711 29.4022 24.9679 27.8 24.9679C26.1695 24.9679 25.9198 26.2402 25.9198 27.5549V32.5406H22.7908V22.4656H25.7925V23.8416H25.8349C26.2543 23.05 27.2769 22.2159 28.799 22.2159C31.9657 22.2159 32.5547 24.3034 32.5547 27.0177V32.5406Z" fill="#303030"/>
</svg>
