<svg width="524" height="524" viewBox="0 0 524 524" fill="none" xmlns="http://www.w3.org/2000/svg">
<g opacity="0.17">
<path d="M512.605 294.881L512.761 293.436L416.903 283.531L416.746 284.976L512.605 294.881Z" fill="white"/>
<path d="M504.823 319.605L505.133 318.183L438.99 304.406L438.68 305.828L504.823 319.605Z" fill="white"/>
<path d="M483.468 339.509L483.929 338.127L466.875 332.703L466.414 334.085L483.468 339.509Z" fill="white"/>
<path d="M502.967 373.307L503.573 371.98L490.716 366.379L490.109 367.706L502.967 373.307Z" fill="white"/>
<path d="M479.17 390.971L479.915 389.713L436.065 364.949L435.32 366.207L479.17 390.971Z" fill="white"/>
<path d="M416.116 377.814L416.992 376.639L389.079 356.805L388.203 357.98L416.116 377.814Z" fill="white"/>
<path d="M382.333 374.29L383.33 373.211L378.836 369.254L377.84 370.333L382.333 374.29Z" fill="white"/>
<path d="M432.911 418.795L433.908 417.716L423.903 408.906L422.906 409.986L432.911 418.795Z" fill="white"/>
<path d="M376.214 392.361L377.32 391.389L367.345 380.555L366.238 381.526L376.214 392.361Z" fill="white"/>
<path d="M389.521 440.021L390.726 439.168L380.665 425.625L379.461 426.479L389.521 440.021Z" fill="white"/>
<path d="M393.042 490.417L394.331 489.692L387.672 478.41L386.383 479.136L393.042 490.417Z" fill="white"/>
<path d="M324.436 456.797L325.852 456.349L311.283 412.457L309.867 412.905L324.436 456.797Z" fill="white"/>
<path d="M303.252 459.476L304.554 459.206L299.9 437.75L298.598 438.019L303.252 459.476Z" fill="white"/>
<path d="M285.78 494.024L287.104 493.889L279.203 419.984L277.879 420.119L285.78 494.024Z" fill="white"/>
<path d="M287.695 511.718L289.019 511.583L287.723 499.449L286.398 499.584L287.695 511.718Z" fill="white"/>
<path d="M261.348 523.226H262.679V483.473H261.348V523.226Z" fill="white"/>
<path d="M242.848 451.453L246.242 420.231L244.918 420.094L241.523 451.316L242.848 451.453Z" fill="white"/>
<path d="M216.247 480.331L223.445 447.321L222.142 447.051L214.945 480.06L216.247 480.331Z" fill="white"/>
<path d="M178.665 521.312L201.543 452.834L200.128 452.383L177.25 520.861L178.665 521.312Z" fill="white"/>
<path d="M128.124 496.012L155.292 450.169L154.004 449.441L126.836 495.284L128.124 496.012Z" fill="white"/>
<path d="M124.758 453.867L160.827 405.456L159.624 404.602L123.555 453.013L124.758 453.867Z" fill="white"/>
<path d="M112.901 400.035L146.953 370.156L145.959 369.074L111.906 398.954L112.901 400.035Z" fill="white"/>
<path d="M115.631 372.706L136.645 357.813L135.77 356.637L114.758 371.529L115.631 372.706Z" fill="white"/>
<path d="M96.8025 361.863L127.704 344.454L126.961 343.195L96.0586 360.604L96.8025 361.863Z" fill="white"/>
<path d="M13.6829 376.483L54.9557 358.554L54.3509 357.227L13.0781 375.155L13.6829 376.483Z" fill="white"/>
<path d="M27.2438 342.966L81.8588 325.687L81.4 324.305L26.7852 341.583L27.2438 342.966Z" fill="white"/>
<path d="M27.2988 292.391L87.2812 286.285L87.1268 284.84L27.1445 290.945L27.2988 292.391Z" fill="white"/>
<path d="M11.3964 294.024L22.2244 292.922L22.0701 291.477L11.2422 292.578L11.3964 294.024Z" fill="white"/>
<path d="M88.6948 457.046L120.195 422.966L119.09 421.992L87.5898 456.073L88.6948 457.046Z" fill="white"/>
<path d="M433.694 305.016L434.107 303.128L414.459 299.035L414.047 300.924L433.694 305.016Z" fill="white"/>
<path d="M462.664 333.154L463.276 331.318L410.327 314.477L409.715 316.313L462.664 333.154Z" fill="white"/>
<path d="M483.686 365.17L484.491 363.406L405.364 328.938L404.559 330.701L483.686 365.17Z" fill="white"/>
<path d="M423.569 359.846L424.558 358.174L398.048 343.203L397.059 344.875L423.569 359.846Z" fill="white"/>
<path d="M437.236 393.11L438.4 391.548L421.3 379.398L420.137 380.96L437.236 393.11Z" fill="white"/>
<path d="M417.195 405.28L418.519 403.846L390.032 378.762L388.707 380.196L417.195 405.28Z" fill="white"/>
<path d="M431.542 452.808L433.013 451.517L379.01 392.863L377.539 394.154L431.542 452.808Z" fill="white"/>
<path d="M377.66 424.45L379.261 423.316L354.874 390.488L353.273 391.622L377.66 424.45Z" fill="white"/>
<path d="M383.966 475.497L385.679 474.533L341.237 399.238L339.523 400.203L383.966 475.497Z" fill="white"/>
<path d="M339.73 503.619L341.611 503.024L327.881 461.66L326 462.256L339.73 503.619Z" fill="white"/>
<path d="M295.771 425.996L297.495 425.64L295.568 416.754L293.844 417.111L295.771 425.996Z" fill="white"/>
<path d="M261.172 477.698H262.934V420.926H261.172V477.698Z" fill="white"/>
<path d="M240.049 479.266L242.432 457.342L240.68 457.16L238.297 479.084L240.049 479.266Z" fill="white"/>
<path d="M224.989 441.39L230.201 417.566L228.478 417.207L223.266 441.03L224.989 441.39Z" fill="white"/>
<path d="M213.544 417.555L215.093 412.919L213.213 412.32L211.664 416.956L213.544 417.555Z" fill="white"/>
<path d="M205.146 442.727L212.413 420.926L210.532 420.328L203.266 442.129L205.146 442.727Z" fill="white"/>
<path d="M182.337 445.616L199.837 407.302L198.031 406.516L180.531 444.829L182.337 445.616Z" fill="white"/>
<path d="M159.716 443.203L185.231 400.115L183.518 399.148L158.004 442.236L159.716 443.203Z" fill="white"/>
<path d="M163.595 402.086L171.465 391.527L169.866 390.391L161.996 400.95L163.595 402.086Z" fill="white"/>
<path d="M123.437 419.741L158.728 381.532L157.26 380.238L121.969 418.448L123.437 419.741Z" fill="white"/>
<path d="M87.1702 422.968L110.175 402.768L108.852 401.332L85.8477 421.532L87.1702 422.968Z" fill="white"/>
<path d="M39.7628 426.68L112.414 375.208L111.252 373.645L38.6016 425.116L39.7628 426.68Z" fill="white"/>
<path d="M61.6709 381.914L93.193 364.177L92.2058 362.504L60.6836 380.241L61.6709 381.914Z" fill="white"/>
<path d="M65.745 354.204L120.297 330.519L119.493 328.754L64.9414 352.439L65.745 354.204Z" fill="white"/>
<path d="M86.2194 324.563L114.364 315.653L113.754 313.816L85.6094 322.725L86.2194 324.563Z" fill="white"/>
<path d="M51.7227 312.317L110.087 300.233L109.676 298.344L51.3125 310.428L51.7227 312.317Z" fill="white"/>
<path d="M97.5889 285.532L107.423 284.527L107.217 282.605L97.3828 283.611L97.5889 285.532Z" fill="white"/>
<path d="M334.364 428.087L336.171 427.302L326.741 406.578L324.934 407.362L334.364 428.087Z" fill="white"/>
</g>
<path d="M1.68608 248.891L1.52344 250.391L101.09 260.68L101.253 259.179L1.68608 248.891Z" fill="#C83E21"/>
<path d="M9.77161 223.211L9.44922 224.687L78.1505 238.997L78.4728 237.521L9.77161 223.211Z" fill="#C83E21"/>
<path d="M31.9513 202.535L31.4727 203.97L49.1861 209.604L49.6648 208.169L31.9513 202.535Z" fill="#C83E21"/>
<path d="M11.7 167.43L11.0703 168.808L24.4247 174.626L25.0544 173.247L11.7 167.43Z" fill="#C83E21"/>
<path d="M36.4183 149.082L35.6445 150.388L81.1907 176.11L81.9645 174.803L36.4183 149.082Z" fill="#C83E21"/>
<path d="M101.909 162.754L101 163.974L129.993 184.576L130.902 183.355L101.909 162.754Z" fill="#C83E21"/>
<path d="M137 166.41L135.965 167.531L140.633 171.641L141.667 170.52L137 166.41Z" fill="#C83E21"/>
<path d="M84.4643 120.184L83.4297 121.305L93.821 130.455L94.8562 129.334L84.4643 120.184Z" fill="#C83E21"/>
<path d="M143.352 147.637L142.203 148.646L152.565 159.9L153.714 158.89L143.352 147.637Z" fill="#C83E21"/>
<path d="M129.532 98.1367L128.281 99.0235L138.731 113.09L139.982 112.204L129.532 98.1367Z" fill="#C83E21"/>
<path d="M125.875 45.7891L124.535 46.5429L131.452 58.261L132.791 57.5072L125.875 45.7891Z" fill="#C83E21"/>
<path d="M197.134 80.7148L195.664 81.18L210.796 126.77L212.266 126.305L197.134 80.7148Z" fill="#C83E21"/>
<path d="M219.142 77.9258L217.789 78.2062L222.623 100.492L223.976 100.213L219.142 77.9258Z" fill="#C83E21"/>
<path d="M237.285 42.0469L235.91 42.1871L244.117 118.951L245.492 118.81L237.285 42.0469Z" fill="#C83E21"/>
<path d="M235.297 23.668L233.922 23.8082L235.269 36.4112L236.645 36.2709L235.297 23.668Z" fill="#C83E21"/>
<path d="M262.668 11.7148L261.285 11.7148V53.0063H262.668V11.7148Z" fill="#C83E21"/>
<path d="M281.88 86.2617L278.355 118.692L279.73 118.834L283.256 86.4046L281.88 86.2617Z" fill="#C83E21"/>
<path d="M309.511 56.2695L302.035 90.5562L303.388 90.8371L310.863 56.5507L309.511 56.2695Z" fill="#C83E21"/>
<path d="M348.544 13.6992L324.781 84.8264L326.251 85.2948L350.014 14.1674L348.544 13.6992Z" fill="#C83E21"/>
<path d="M401.039 39.9805L372.82 87.5965L374.158 88.3524L402.377 40.7365L401.039 39.9805Z" fill="#C83E21"/>
<path d="M404.539 83.7539L367.074 134.038L368.324 134.925L405.788 84.6418L404.539 83.7539Z" fill="#C83E21"/>
<path d="M416.853 139.672L381.484 170.707L382.517 171.83L417.887 140.795L416.853 139.672Z" fill="#C83E21"/>
<path d="M414.017 168.055L392.191 183.524L393.099 184.745L414.925 169.277L414.017 168.055Z" fill="#C83E21"/>
<path d="M433.574 179.316L401.477 197.399L402.249 198.706L434.346 180.624L433.574 179.316Z" fill="#C83E21"/>
<path d="M519.909 164.133L477.039 182.755L477.667 184.134L520.537 165.512L519.909 164.133Z" fill="#C83E21"/>
<path d="M505.825 198.945L449.098 216.892L449.574 218.328L506.302 200.382L505.825 198.945Z" fill="#C83E21"/>
<path d="M505.764 251.477L443.461 257.818L443.621 259.319L505.924 252.978L505.764 251.477Z" fill="#C83E21"/>
<path d="M522.286 249.781L511.039 250.926L511.199 252.428L522.446 251.283L522.286 249.781Z" fill="#C83E21"/>
<path d="M441.996 80.4531L409.277 115.853L410.425 116.864L443.143 81.4649L441.996 80.4531Z" fill="#C83E21"/>
<path d="M83.6508 238.363L83.2227 240.325L103.63 244.576L104.059 242.614L83.6508 238.363Z" fill="#C83E21"/>
<path d="M53.558 209.137L52.9219 211.045L107.919 228.537L108.555 226.629L53.558 209.137Z" fill="#C83E21"/>
<path d="M31.7275 175.883L30.8906 177.715L113.079 213.517L113.916 211.685L31.7275 175.883Z" fill="#C83E21"/>
<path d="M94.1687 181.414L93.1406 183.151L120.676 198.701L121.704 196.964L94.1687 181.414Z" fill="#C83E21"/>
<path d="M79.9741 146.859L78.7656 148.481L96.5265 161.101L97.735 159.479L79.9741 146.859Z" fill="#C83E21"/>
<path d="M100.789 134.223L99.4141 135.712L129.004 161.767L130.379 160.277L100.789 134.223Z" fill="#C83E21"/>
<path d="M85.8869 84.8555L84.3594 86.1966L140.451 147.119L141.978 145.778L85.8869 84.8555Z" fill="#C83E21"/>
<path d="M141.854 114.309L140.191 115.487L165.522 149.584L167.185 148.406L141.854 114.309Z" fill="#C83E21"/>
<path d="M135.303 61.2852L133.523 62.2869L179.685 140.494L181.464 139.492L135.303 61.2852Z" fill="#C83E21"/>
<path d="M181.25 32.0781L179.297 32.6967L193.557 75.6601L195.511 75.0418L181.25 32.0781Z" fill="#C83E21"/>
<path d="M226.912 112.703L225.121 113.073L227.123 122.303L228.913 121.932L226.912 112.703Z" fill="#C83E21"/>
<path d="M262.85 59.0039H261.02V117.972H262.85V59.0039Z" fill="#C83E21"/>
<path d="M284.784 57.3711L282.309 80.1432L284.129 80.3317L286.604 57.5598L284.784 57.3711Z" fill="#C83E21"/>
<path d="M300.429 96.7109L295.016 121.456L296.806 121.829L302.219 97.0848L300.429 96.7109Z" fill="#C83E21"/>
<path d="M312.315 121.469L310.707 126.283L312.659 126.905L314.268 122.091L312.315 121.469Z" fill="#C83E21"/>
<path d="M321.039 95.3242L313.492 117.969L315.445 118.589L322.993 95.9448L321.039 95.3242Z" fill="#C83E21"/>
<path d="M344.728 92.3242L326.551 132.12L328.427 132.937L346.604 93.1415L344.728 92.3242Z" fill="#C83E21"/>
<path d="M368.228 94.8281L341.727 139.582L343.505 140.586L370.006 95.8323L368.228 94.8281Z" fill="#C83E21"/>
<path d="M364.202 137.539L356.027 148.507L357.688 149.687L365.863 138.72L364.202 137.539Z" fill="#C83E21"/>
<path d="M405.91 119.199L369.254 158.887L370.779 160.23L407.435 120.543L405.91 119.199Z" fill="#C83E21"/>
<path d="M443.579 115.848L419.684 136.829L421.057 138.321L444.952 117.339L443.579 115.848Z" fill="#C83E21"/>
<path d="M492.821 111.992L417.359 165.455L418.566 167.079L494.027 113.616L492.821 111.992Z" fill="#C83E21"/>
<path d="M470.066 158.488L437.324 176.912L438.35 178.65L471.091 160.227L470.066 158.488Z" fill="#C83E21"/>
<path d="M465.833 187.273L409.172 211.875L410.007 213.708L466.668 189.106L465.833 187.273Z" fill="#C83E21"/>
<path d="M444.564 218.059L415.332 227.313L415.965 229.22L445.198 219.967L444.564 218.059Z" fill="#C83E21"/>
<path d="M480.399 230.781L419.777 243.333L420.203 245.295L480.825 232.744L480.399 230.781Z" fill="#C83E21"/>
<path d="M432.758 258.602L422.543 259.647L422.757 261.641L432.972 260.596L432.758 258.602Z" fill="#C83E21"/>
<path d="M186.826 110.535L184.949 111.35L194.744 132.875L196.621 132.061L186.826 110.535Z" fill="#C83E21"/>
</svg>
