<svg width="238" height="239" viewBox="0 0 238 239" fill="none" xmlns="http://www.w3.org/2000/svg">
<g opacity="0.2">
<path d="M233.339 134.233L233.411 133.575L189.775 129.066L189.703 129.724L233.339 134.233Z" fill="#C83E21"/>
<path d="M229.797 145.489L229.938 144.842L199.829 138.57L199.688 139.217L229.797 145.489Z" fill="#C83E21"/>
<path d="M220.076 154.547L220.285 153.918L212.522 151.449L212.312 152.078L220.076 154.547Z" fill="#C83E21"/>
<path d="M228.95 169.931L229.226 169.327L223.374 166.777L223.098 167.382L228.95 169.931Z" fill="#C83E21"/>
<path d="M218.117 177.974L218.457 177.402L198.495 166.129L198.156 166.702L218.117 177.974Z" fill="#C83E21"/>
<path d="M189.415 171.982L189.814 171.447L177.108 162.418L176.709 162.953L189.415 171.982Z" fill="#C83E21"/>
<path d="M174.038 170.378L174.491 169.887L172.446 168.086L171.992 168.577L174.038 170.378Z" fill="#C83E21"/>
<path d="M197.06 190.638L197.514 190.147L192.96 186.137L192.506 186.628L197.06 190.638Z" fill="#C83E21"/>
<path d="M171.252 178.609L171.756 178.166L167.215 173.234L166.711 173.677L171.252 178.609Z" fill="#C83E21"/>
<path d="M177.308 200.303L177.857 199.915L173.277 193.75L172.729 194.139L177.308 200.303Z" fill="#C83E21"/>
<path d="M178.912 223.243L179.499 222.913L176.468 217.777L175.881 218.108L178.912 223.243Z" fill="#C83E21"/>
<path d="M147.681 207.938L148.325 207.734L141.693 187.754L141.049 187.958L147.681 207.938Z" fill="#C83E21"/>
<path d="M138.038 209.159L138.631 209.037L136.513 199.27L135.92 199.392L138.038 209.159Z" fill="#C83E21"/>
<path d="M130.085 224.884L130.688 224.822L127.091 191.18L126.488 191.241L130.085 224.884Z" fill="#C83E21"/>
<path d="M130.956 232.94L131.558 232.879L130.968 227.355L130.365 227.417L130.956 232.94Z" fill="#C83E21"/>
<path d="M118.963 238.178H119.569V220.082H118.963V238.178Z" fill="#C83E21"/>
<path d="M110.54 205.506L112.085 191.293L111.483 191.23L109.938 205.443L110.54 205.506Z" fill="#C83E21"/>
<path d="M98.4326 218.65L101.709 203.623L101.116 203.5L97.8398 218.526L98.4326 218.65Z" fill="#C83E21"/>
<path d="M81.3236 237.307L91.7381 206.135L91.0942 205.93L80.6797 237.102L81.3236 237.307Z" fill="#C83E21"/>
<path d="M58.3168 225.789L70.6839 204.921L70.0975 204.59L57.7305 225.458L58.3168 225.789Z" fill="#C83E21"/>
<path d="M56.7841 206.606L73.2033 184.569L72.6555 184.18L56.2363 206.217L56.7841 206.606Z" fill="#C83E21"/>
<path d="M51.3883 182.098L66.8894 168.496L66.4367 168.004L50.9355 181.606L51.3883 182.098Z" fill="#C83E21"/>
<path d="M52.6301 169.659L62.1956 162.879L61.7977 162.344L52.2324 169.123L52.6301 169.659Z" fill="#C83E21"/>
<path d="M44.0594 164.724L58.1263 156.8L57.7877 156.227L43.7207 164.151L44.0594 164.724Z" fill="#C83E21"/>
<path d="M6.22258 171.379L25.0105 163.218L24.7352 162.613L5.94727 170.775L6.22258 171.379Z" fill="#C83E21"/>
<path d="M12.3943 156.12L37.2558 148.254L37.047 147.625L12.1855 155.49L12.3943 156.12Z" fill="#C83E21"/>
<path d="M12.4218 133.101L39.7266 130.322L39.6563 129.664L12.3516 132.443L12.4218 133.101Z" fill="#C83E21"/>
<path d="M5.18155 133.843L10.1106 133.342L10.0404 132.684L5.11133 133.185L5.18155 133.843Z" fill="#C83E21"/>
<path d="M40.3702 208.051L54.7093 192.537L54.2066 192.094L39.8672 207.608L40.3702 208.051Z" fill="#C83E21"/>
<path d="M197.416 138.844L197.604 137.984L188.66 136.121L188.473 136.981L197.416 138.844Z" fill="#C83E21"/>
<path d="M210.605 151.655L210.884 150.819L186.781 143.152L186.502 143.988L210.605 151.655Z" fill="#C83E21"/>
<path d="M220.174 166.228L220.541 165.425L184.521 149.734L184.154 150.537L220.174 166.228Z" fill="#C83E21"/>
<path d="M192.808 163.803L193.259 163.042L181.191 156.227L180.74 156.988L192.808 163.803Z" fill="#C83E21"/>
<path d="M199.03 178.949L199.56 178.238L191.776 172.707L191.246 173.418L199.03 178.949Z" fill="#C83E21"/>
<path d="M189.907 184.486L190.51 183.833L177.542 172.414L176.939 173.067L189.907 184.486Z" fill="#C83E21"/>
<path d="M196.438 206.124L197.108 205.536L172.525 178.836L171.855 179.424L196.438 206.124Z" fill="#C83E21"/>
<path d="M171.91 193.214L172.638 192.698L161.537 177.754L160.809 178.27L171.91 193.214Z" fill="#C83E21"/>
<path d="M174.78 216.453L175.56 216.013L155.329 181.738L154.549 182.177L174.78 216.453Z" fill="#C83E21"/>
<path d="M154.643 229.253L155.499 228.982L149.249 210.152L148.393 210.423L154.643 229.253Z" fill="#C83E21"/>
<path d="M134.631 193.918L135.416 193.756L134.539 189.711L133.754 189.873L134.631 193.918Z" fill="#C83E21"/>
<path d="M118.883 217.453H119.685V191.609H118.883V217.453Z" fill="#C83E21"/>
<path d="M109.269 218.168L110.353 208.188L109.556 208.105L108.471 218.086L109.269 218.168Z" fill="#C83E21"/>
<path d="M102.411 200.926L104.784 190.082L104 189.918L101.627 200.763L102.411 200.926Z" fill="#C83E21"/>
<path d="M97.2033 190.074L97.9085 187.964L97.0526 187.691L96.3477 189.801L97.2033 190.074Z" fill="#C83E21"/>
<path d="M93.3793 201.532L96.6872 191.608L95.8311 191.336L92.5234 201.26L93.3793 201.532Z" fill="#C83E21"/>
<path d="M82.9959 202.85L90.9622 185.409L90.1401 185.051L82.1738 202.492L82.9959 202.85Z" fill="#C83E21"/>
<path d="M72.6991 201.749L84.3139 182.135L83.5345 181.695L71.9199 201.309L72.6991 201.749Z" fill="#C83E21"/>
<path d="M74.4641 183.035L78.0466 178.228L77.3188 177.711L73.7363 182.517L74.4641 183.035Z" fill="#C83E21"/>
<path d="M56.1841 191.072L72.2492 173.679L71.5807 173.09L55.5156 190.483L56.1841 191.072Z" fill="#C83E21"/>
<path d="M39.6743 192.541L50.1464 183.345L49.5444 182.691L39.0723 191.887L39.6743 192.541Z" fill="#C83E21"/>
<path d="M18.095 194.228L51.1667 170.798L50.638 170.086L17.5664 193.517L18.095 194.228Z" fill="#C83E21"/>
<path d="M28.0666 173.851L42.4159 165.777L41.9665 165.016L27.6172 173.09L28.0666 173.851Z" fill="#C83E21"/>
<path d="M29.9224 161.238L54.7552 150.456L54.3894 149.652L29.5566 160.434L29.9224 161.238Z" fill="#C83E21"/>
<path d="M39.2425 147.743L52.0542 143.688L51.7765 142.852L38.9648 146.907L39.2425 147.743Z" fill="#C83E21"/>
<path d="M23.5383 142.17L50.1063 136.669L49.9196 135.809L23.3516 141.309L23.5383 142.17Z" fill="#C83E21"/>
<path d="M44.4161 129.977L48.8928 129.519L48.799 128.645L44.3223 129.102L44.4161 129.977Z" fill="#C83E21"/>
<path d="M152.199 194.869L153.022 194.512L148.729 185.078L147.906 185.435L152.199 194.869Z" fill="#C83E21"/>
</g>
<path d="M0.759582 113.297L0.685547 113.98L46.0097 118.663L46.0837 117.98L0.759582 113.297Z" fill="#C83E21"/>
<path d="M4.43973 101.609L4.29297 102.281L35.5668 108.795L35.7135 108.123L4.43973 101.609Z" fill="#C83E21"/>
<path d="M14.5363 92.1953L14.3184 92.8486L22.3818 95.4132L22.5997 94.76L14.5363 92.1953Z" fill="#C83E21"/>
<path d="M5.31789 76.2148L5.03125 76.8424L11.1104 79.4906L11.397 78.8631L5.31789 76.2148Z" fill="#C83E21"/>
<path d="M16.569 67.8633L16.2168 68.4579L36.95 80.1668L37.3023 79.5719L16.569 67.8633Z" fill="#C83E21"/>
<path d="M46.3826 74.0859L45.9688 74.6415L59.1667 84.0195L59.5805 83.4639L46.3826 74.0859Z" fill="#C83E21"/>
<path d="M62.356 75.7539L61.8848 76.2642L64.0096 78.135L64.4806 77.6247L62.356 75.7539Z" fill="#C83E21"/>
<path d="M38.4417 54.7109L37.9707 55.2215L42.701 59.3868L43.1722 58.8765L38.4417 54.7109Z" fill="#C83E21"/>
<path d="M65.2478 67.207L64.7246 67.6664L69.4413 72.7892L69.9645 72.3299L65.2478 67.207Z" fill="#C83E21"/>
<path d="M58.9581 44.6719L58.3887 45.0756L63.1454 51.4788L63.7151 51.0753L58.9581 44.6719Z" fill="#C83E21"/>
<path d="M57.2933 20.8438L56.6836 21.1869L59.8323 26.5212L60.4418 26.178L57.2933 20.8438Z" fill="#C83E21"/>
<path d="M89.7319 36.7422L89.0625 36.9539L95.9508 57.707L96.6201 57.4953L89.7319 36.7422Z" fill="#C83E21"/>
<path d="M99.7485 35.4727L99.1328 35.6003L101.333 45.7453L101.949 45.6179L99.7485 35.4727Z" fill="#C83E21"/>
<path d="M108.007 19.1406L107.381 19.2044L111.117 54.1483L111.743 54.0845L108.007 19.1406Z" fill="#C83E21"/>
<path d="M107.103 10.7734L106.477 10.8373L107.09 16.5743L107.716 16.5105L107.103 10.7734Z" fill="#C83E21"/>
<path d="M119.561 5.33203L118.932 5.33203V24.1285H119.561V5.33203Z" fill="#C83E21"/>
<path d="M128.31 39.2695L126.705 54.0323L127.331 54.0971L128.936 39.3346L128.31 39.2695Z" fill="#C83E21"/>
<path d="M140.887 25.6133L137.484 41.221L138.1 41.3489L141.503 25.7413L140.887 25.6133Z" fill="#C83E21"/>
<path d="M158.655 6.23438L147.838 38.6124L148.507 38.8257L159.324 6.44751L158.655 6.23438Z" fill="#C83E21"/>
<path d="M182.553 18.1992L169.707 39.8747L170.316 40.2188L183.162 18.5434L182.553 18.1992Z" fill="#C83E21"/>
<path d="M184.144 38.125L167.09 61.0148L167.659 61.419L184.713 38.5292L184.144 38.125Z" fill="#C83E21"/>
<path d="M189.749 63.5781L173.648 77.7057L174.119 78.217L190.219 64.0892L189.749 63.5781Z" fill="#C83E21"/>
<path d="M188.459 76.5L178.523 83.5416L178.937 84.0977L188.872 77.0563L188.459 76.5Z" fill="#C83E21"/>
<path d="M197.361 81.6289L182.75 89.8603L183.102 90.4555L197.713 82.2241L197.361 81.6289Z" fill="#C83E21"/>
<path d="M236.663 74.7148L217.148 83.1919L217.434 83.8197L236.949 75.3427L236.663 74.7148Z" fill="#C83E21"/>
<path d="M230.251 90.5625L204.428 98.7321L204.645 99.3859L230.468 91.2163L230.251 90.5625Z" fill="#C83E21"/>
<path d="M230.223 114.477L201.861 117.363L201.934 118.047L230.295 115.16L230.223 114.477Z" fill="#C83E21"/>
<path d="M237.743 113.703L232.623 114.224L232.696 114.908L237.816 114.387L237.743 113.703Z" fill="#C83E21"/>
<path d="M201.195 36.6211L186.301 52.7354L186.823 53.1958L201.717 37.0817L201.195 36.6211Z" fill="#C83E21"/>
<path d="M38.0719 108.504L37.877 109.397L47.1666 111.332L47.3618 110.439L38.0719 108.504Z" fill="#C83E21"/>
<path d="M24.3735 95.2031L24.084 96.0716L49.1194 104.034L49.409 103.166L24.3735 95.2031Z" fill="#C83E21"/>
<path d="M14.4337 80.0625L14.0527 80.8966L51.466 97.1942L51.847 96.3604L14.4337 80.0625Z" fill="#C83E21"/>
<path d="M42.8586 82.582L42.3906 83.3726L54.9251 90.4513L55.3932 89.6608L42.8586 82.582Z" fill="#C83E21"/>
<path d="M36.3978 66.8516L35.8477 67.5899L43.9327 73.3347L44.4828 72.5963L36.3978 66.8516Z" fill="#C83E21"/>
<path d="M45.8722 61.0977L45.2461 61.7757L58.7156 73.6361L59.3417 72.9581L45.8722 61.0977Z" fill="#C83E21"/>
<path d="M39.0879 38.625L38.3926 39.2355L63.9262 66.9681L64.6215 66.3576L39.0879 38.625Z" fill="#C83E21"/>
<path d="M64.5655 52.0352L63.8086 52.5714L75.3393 68.0931L76.0962 67.5568L64.5655 52.0352Z" fill="#C83E21"/>
<path d="M61.5855 27.8984L60.7754 28.3544L81.7887 63.9554L82.5988 63.4993L61.5855 27.8984Z" fill="#C83E21"/>
<path d="M82.5006 14.6016L81.6113 14.8831L88.1028 34.4407L88.9923 34.1592L82.5006 14.6016Z" fill="#C83E21"/>
<path d="M103.286 51.3047L102.471 51.4731L103.382 55.6746L104.197 55.5059L103.286 51.3047Z" fill="#C83E21"/>
<path d="M119.646 26.8594H118.812V53.7025H119.646V26.8594Z" fill="#C83E21"/>
<path d="M129.631 26.1172L128.504 36.4833L129.333 36.5692L130.459 26.2031L129.631 26.1172Z" fill="#C83E21"/>
<path d="M136.751 44.0234L134.287 55.2878L135.102 55.4577L137.566 44.1936L136.751 44.0234Z" fill="#C83E21"/>
<path d="M142.164 55.293L141.432 57.4846L142.32 57.7678L143.053 55.5762L142.164 55.293Z" fill="#C83E21"/>
<path d="M146.133 43.3945L142.697 53.7026L143.586 53.985L147.022 43.677L146.133 43.3945Z" fill="#C83E21"/>
<path d="M156.917 42.0273L148.643 60.1428L149.496 60.5149L157.771 42.3994L156.917 42.0273Z" fill="#C83E21"/>
<path d="M167.615 43.168L155.551 63.5406L156.36 63.9977L168.424 43.6251L167.615 43.168Z" fill="#C83E21"/>
<path d="M165.782 62.6094L162.061 67.6021L162.816 68.1394L166.538 63.1469L165.782 62.6094Z" fill="#C83E21"/>
<path d="M184.768 54.2617L168.082 72.328L168.776 72.9397L185.463 54.8734L184.768 54.2617Z" fill="#C83E21"/>
<path d="M201.917 52.7344L191.039 62.2855L191.664 62.9645L202.542 53.4134L201.917 52.7344Z" fill="#C83E21"/>
<path d="M224.331 50.9805L189.98 75.3176L190.53 76.0567L224.881 51.7196L224.331 50.9805Z" fill="#C83E21"/>
<path d="M213.973 72.1484L199.068 80.535L199.535 81.3263L214.44 72.9397L213.973 72.1484Z" fill="#C83E21"/>
<path d="M212.047 85.25L186.254 96.449L186.634 97.2834L212.427 86.0843L212.047 85.25Z" fill="#C83E21"/>
<path d="M202.366 99.2656L189.059 103.478L189.347 104.347L202.654 100.134L202.366 99.2656Z" fill="#C83E21"/>
<path d="M218.676 105.055L191.08 110.768L191.274 111.662L218.87 105.948L218.676 105.055Z" fill="#C83E21"/>
<path d="M196.99 117.719L192.34 118.194L192.437 119.102L197.087 118.627L196.99 117.719Z" fill="#C83E21"/>
<path d="M85.038 50.3164L84.1836 50.6872L88.6425 60.4859L89.4969 60.1151L85.038 50.3164Z" fill="#C83E21"/>
</svg>
