<svg width="20" height="20" viewBox="0 0 20 20" fill="none" xmlns="http://www.w3.org/2000/svg">
<path d="M6.66663 4.79102C6.32496 4.79102 6.04163 4.50768 6.04163 4.16602V1.66602C6.04163 1.32435 6.32496 1.04102 6.66663 1.04102C7.00829 1.04102 7.29163 1.32435 7.29163 1.66602V4.16602C7.29163 4.50768 7.00829 4.79102 6.66663 4.79102Z" fill="#292D32"/>
<path d="M13.3334 4.79102C12.9917 4.79102 12.7084 4.50768 12.7084 4.16602V1.66602C12.7084 1.32435 12.9917 1.04102 13.3334 1.04102C13.675 1.04102 13.9584 1.32435 13.9584 1.66602V4.16602C13.9584 4.50768 13.675 4.79102 13.3334 4.79102Z" fill="#292D32"/>
<path d="M17.0833 8.19922H2.91663C2.57496 8.19922 2.29163 7.91589 2.29163 7.57422C2.29163 7.23255 2.57496 6.94922 2.91663 6.94922H17.0833C17.425 6.94922 17.7083 7.23255 17.7083 7.57422C17.7083 7.91589 17.425 8.19922 17.0833 8.19922Z" fill="#292D32"/>
<path d="M13.3333 18.9577H6.66667C3.625 18.9577 1.875 17.2077 1.875 14.166V7.08268C1.875 4.04102 3.625 2.29102 6.66667 2.29102H13.3333C16.375 2.29102 18.125 4.04102 18.125 7.08268V14.166C18.125 17.2077 16.375 18.9577 13.3333 18.9577ZM6.66667 3.54102C4.28333 3.54102 3.125 4.69935 3.125 7.08268V14.166C3.125 16.5493 4.28333 17.7077 6.66667 17.7077H13.3333C15.7167 17.7077 16.875 16.5493 16.875 14.166V7.08268C16.875 4.69935 15.7167 3.54102 13.3333 3.54102H6.66667Z" fill="#292D32"/>
<path d="M7.08333 12.0827C6.975 12.0827 6.86666 12.0577 6.76666 12.016C6.66666 11.9744 6.57501 11.916 6.49167 11.841C6.41667 11.7577 6.35832 11.666 6.31666 11.566C6.27499 11.466 6.25 11.3577 6.25 11.2494C6.25 11.0327 6.34167 10.816 6.49167 10.6577C6.57501 10.5827 6.66666 10.5243 6.76666 10.4827C6.91666 10.416 7.08334 10.3993 7.25001 10.4327C7.30001 10.441 7.35 10.4577 7.4 10.4827C7.45 10.4993 7.5 10.5244 7.55 10.5577C7.59166 10.591 7.63333 10.6244 7.67499 10.6577C7.70833 10.6994 7.74999 10.741 7.77499 10.7827C7.80832 10.8327 7.83334 10.8827 7.85001 10.9327C7.87501 10.9827 7.89168 11.0327 7.90001 11.0827C7.90834 11.141 7.91667 11.191 7.91667 11.2494C7.91667 11.466 7.82499 11.6827 7.67499 11.841C7.51666 11.991 7.3 12.0827 7.08333 12.0827Z" fill="#292D32"/>
<path d="M9.99996 12.0837C9.78329 12.0837 9.56663 11.992 9.4083 11.842C9.37497 11.8004 9.34164 11.7587 9.3083 11.717C9.27497 11.667 9.24995 11.6171 9.23328 11.5671C9.20828 11.5171 9.19162 11.4671 9.18328 11.4171C9.17495 11.3587 9.16663 11.3087 9.16663 11.2504C9.16663 11.142 9.19161 11.0337 9.23328 10.9337C9.27495 10.8337 9.3333 10.7421 9.4083 10.6587C9.64163 10.4254 10.0166 10.3504 10.3166 10.4837C10.425 10.5254 10.5083 10.5837 10.5916 10.6587C10.7416 10.8171 10.8333 11.0337 10.8333 11.2504C10.8333 11.3087 10.825 11.3587 10.8166 11.4171C10.8083 11.4671 10.7916 11.5171 10.7666 11.5671C10.75 11.6171 10.7249 11.667 10.6916 11.717C10.6583 11.7587 10.625 11.8004 10.5916 11.842C10.5083 11.917 10.425 11.9754 10.3166 12.0171C10.2166 12.0587 10.1083 12.0837 9.99996 12.0837Z" fill="#292D32"/>
<path d="M7.08333 14.9997C6.975 14.9997 6.86666 14.9747 6.76666 14.9331C6.66666 14.8914 6.57501 14.8331 6.49167 14.7581C6.41667 14.6747 6.35832 14.5914 6.31666 14.4831C6.27499 14.3831 6.25 14.2747 6.25 14.1664C6.25 13.9497 6.34167 13.7331 6.49167 13.5747C6.57501 13.4997 6.66666 13.4414 6.76666 13.3997C7.075 13.2664 7.44166 13.3414 7.67499 13.5747C7.70833 13.6164 7.74999 13.6581 7.77499 13.6997C7.80832 13.7497 7.83334 13.7997 7.85001 13.8497C7.87501 13.8997 7.89168 13.9497 7.90001 14.0081C7.90834 14.0581 7.91667 14.1164 7.91667 14.1664C7.91667 14.3831 7.82499 14.5997 7.67499 14.7581C7.51666 14.9081 7.3 14.9997 7.08333 14.9997Z" fill="#292D32"/>
</svg>
