<svg width="25" height="24" viewBox="0 0 25 24" fill="none" xmlns="http://www.w3.org/2000/svg">
<path fill-rule="evenodd" clip-rule="evenodd" d="M21.034 3.464C19.57 2 17.212 2 12.499 2C7.786 2 5.428 2 3.964 3.464C2.5 4.928 2.5 7.286 2.5 11.999C2.5 16.712 2.5 19.07 3.964 20.534C5.428 21.998 7.786 21.998 12.499 21.998C17.212 21.998 19.57 21.998 21.034 20.534C22.498 19.07 22.498 16.712 22.498 11.999C22.498 7.286 22.498 4.928 21.034 3.464ZM11.749 6.998C11.749 6.584 12.085 6.248 12.499 6.248C12.913 6.248 13.249 6.584 13.249 6.998V12.998C13.249 13.412 12.913 13.748 12.499 13.748C12.085 13.748 11.749 13.412 11.749 12.998V6.998ZM12.499 17C11.947 17 11.5 16.553 11.5 16.001C11.5 15.449 11.947 15.002 12.499 15.002C13.051 15.002 13.498 15.449 13.498 16.001C13.498 16.55 13.051 17 12.499 17Z" fill="url(#paint0_linear_3473_6128)"/>
<defs>
<linearGradient id="paint0_linear_3473_6128" x1="2.49901" y1="11.999" x2="22.499" y2="11.999" gradientUnits="userSpaceOnUse">
<stop stop-color="#FFA186"/>
<stop offset="1" stop-color="#FF5797"/>
</linearGradient>
</defs>
</svg>
