<svg width="25" height="25" viewBox="0 0 25 25" fill="none" xmlns="http://www.w3.org/2000/svg">
<path fill-rule="evenodd" clip-rule="evenodd" d="M21.034 4.12806C19.57 2.66406 17.212 2.66406 12.499 2.66406C7.786 2.66406 5.428 2.66406 3.964 4.12806C2.5 5.59206 2.5 7.95006 2.5 12.6631C2.5 17.3761 2.5 19.7341 3.964 21.1981C5.428 22.6621 7.786 22.6621 12.499 22.6621C17.212 22.6621 19.57 22.6621 21.034 21.1981C22.498 19.7341 22.498 17.3761 22.498 12.6631C22.498 7.95006 22.498 5.59206 21.034 4.12806ZM11.749 7.66206C11.749 7.24806 12.085 6.91206 12.499 6.91206C12.913 6.91206 13.249 7.24806 13.249 7.66206V13.6621C13.249 14.0761 12.913 14.4121 12.499 14.4121C12.085 14.4121 11.749 14.0761 11.749 13.6621V7.66206ZM12.499 17.6641C11.947 17.6641 11.5 17.2171 11.5 16.6651C11.5 16.1131 11.947 15.6661 12.499 15.6661C13.051 15.6661 13.498 16.1131 13.498 16.6651C13.498 17.2141 13.051 17.6641 12.499 17.6641Z" fill="url(#paint0_linear_3844_23547)"/>
<defs>
<linearGradient id="paint0_linear_3844_23547" x1="2.49901" y1="12.6631" x2="22.499" y2="12.6631" gradientUnits="userSpaceOnUse">
<stop stop-color="#FFA186"/>
<stop offset="1" stop-color="#FF5797"/>
</linearGradient>
</defs>
</svg>
