<svg width="24" height="24" viewBox="0 0 24 24" fill="none" xmlns="http://www.w3.org/2000/svg">
<g clip-path="url(#clip0_3473_15595)">
<path d="M23.2748 6.08719C22.6448 3.76828 20.2331 1.35609 17.9137 0.726094C16.4916 0.371719 14.5866 0.0065625 12 0C9.41438 0.0065625 7.50938 0.371719 6.08719 0.726094C3.76828 1.35609 1.35609 3.76781 0.726094 6.08719C0.371719 7.50891 0.0065625 9.41438 0 12C0.0065625 14.5861 0.371719 16.4911 0.726094 17.9133C1.35609 20.2327 3.76828 22.6444 6.08719 23.2744C7.50938 23.6287 9.41531 23.9939 12.0005 24C14.5861 23.9939 16.4916 23.6287 17.9137 23.2744C20.2331 22.6444 22.6448 20.2327 23.2748 17.9133C23.6292 16.4911 23.9944 14.5852 24.0005 12C23.9944 9.41438 23.6292 7.50938 23.2748 6.08719Z" fill="#58C0B9" fill-opacity="0.17"/>
<path d="M18.8051 10.643C18.7816 9.31001 18.6619 7.98046 18.447 6.66471C18.3082 6.3972 18.0772 6.18904 17.7968 6.07877C15.9288 5.35409 14.0913 4.66268 12.3002 4.07252C12.1187 4.01228 11.9226 4.01228 11.741 4.07252C9.9504 4.66127 8.1129 5.35127 6.24493 6.07549C5.99727 6.1726 5.7873 6.3466 5.64586 6.5719C5.65618 6.5719 5.26196 7.80518 5.19446 10.5249C5.15602 13.245 5.49352 14.0611 5.48415 14.0611C5.66743 14.6592 6.01055 15.2672 6.50227 15.886C7.05211 16.5764 7.79508 17.2899 8.6918 17.9916C10.1768 19.1569 11.5666 19.8539 11.6248 19.8783C11.7486 19.9398 11.885 19.9718 12.0232 19.9718C12.1615 19.9718 12.2978 19.9398 12.4216 19.8783C12.4802 19.8535 13.8715 19.1546 15.356 17.9897C16.2532 17.2866 16.9966 16.5746 17.546 15.8836C18.0729 15.2217 18.4291 14.5711 18.6012 13.9331C18.5909 13.9313 18.8398 12.9324 18.8051 10.643Z" fill="#25ACAB"/>
<path d="M12.7602 12.4287V13.879C12.7602 14.0752 12.6822 14.2633 12.5435 14.402C12.4048 14.5408 12.2167 14.6187 12.0205 14.6187C11.8243 14.6187 11.6362 14.5408 11.4974 14.402C11.3587 14.2633 11.2808 14.0752 11.2808 13.879V12.4493C10.9553 12.2879 10.6935 12.0217 10.5376 11.6935C10.3817 11.3653 10.3406 10.9942 10.421 10.6399C10.5015 10.2856 10.6987 9.96858 10.9811 9.7399C11.2635 9.51122 11.6145 9.38413 11.9778 9.37906C12.3411 9.374 12.6956 9.49125 12.9842 9.71197C13.2728 9.93269 13.4788 10.2441 13.5691 10.596C13.6594 10.9479 13.6287 11.32 13.482 11.6524C13.3353 11.9848 13.081 12.2582 12.7602 12.4287Z" fill="url(#paint0_linear_3473_15595)"/>
</g>
<defs>
<linearGradient id="paint0_linear_3473_15595" x1="13.5697" y1="13.376" x2="10.4516" y2="10.2574" gradientUnits="userSpaceOnUse">
<stop stop-color="#C8F0EF"/>
<stop offset="0.57" stop-color="white"/>
<stop offset="1" stop-color="white"/>
</linearGradient>
<clipPath id="clip0_3473_15595">
<rect width="24" height="24" fill="white"/>
</clipPath>
</defs>
</svg>
