<svg width="24" height="25" viewBox="0 0 24 25" fill="none" xmlns="http://www.w3.org/2000/svg">
<path d="M22.5869 14.8078C22.1151 14.074 21.6434 13.3664 21.1717 12.6326C21.0669 12.4754 21.0669 12.3705 21.1717 12.2133C21.6434 11.5057 22.0889 10.7981 22.5607 10.0905C23.111 9.25191 22.8227 8.4395 21.8793 8.0988C21.0931 7.81053 20.3069 7.49605 19.5207 7.20777C19.3634 7.15536 19.2848 7.05053 19.2848 6.86708C19.2586 6.00225 19.2062 5.13743 19.1538 4.29881C19.1013 3.38156 18.3938 2.85743 17.5027 3.09329C16.6641 3.30294 15.8255 3.5388 15.0131 3.77467C14.8296 3.82708 14.7248 3.77467 14.5938 3.64363C14.0696 2.96225 13.5193 2.30708 12.9951 1.65191C12.4186 0.918114 11.5276 0.918114 10.9248 1.65191C10.4007 2.30708 9.85031 2.96225 9.35238 3.61742C9.22135 3.80087 9.09031 3.82708 8.88066 3.77467C8.06824 3.53881 7.25583 3.32915 6.67928 3.17191C5.55238 2.90984 4.87101 3.35536 4.81859 4.29881C4.76618 5.16363 4.71376 6.02846 4.68755 6.91949C4.68755 7.10294 4.60893 7.18156 4.45169 7.26019C3.63928 7.57467 2.82687 7.88915 2.01445 8.20363C1.17583 8.54433 0.913763 9.35674 1.41169 10.1167C1.88342 10.8505 2.35514 11.5581 2.82686 12.2919C2.93169 12.4492 2.93169 12.554 2.82686 12.7374C2.32893 13.4712 1.85721 14.205 1.38548 14.965C0.939968 15.6726 1.22824 16.5112 2.01445 16.8257C2.82686 17.1402 3.66548 17.4547 4.4779 17.7692C4.66134 17.8216 4.71376 17.9264 4.71376 18.1098C4.73996 18.9485 4.84479 19.7609 4.84479 20.5995C4.84479 21.4381 5.57858 22.1981 6.60065 21.8836C7.41307 21.6216 8.22548 21.4381 9.03789 21.2023C9.19514 21.1498 9.29996 21.176 9.40479 21.3333C9.95513 22.0147 10.4793 22.6698 11.0296 23.3512C11.6324 24.085 12.4972 24.085 13.0738 23.3512C13.6241 22.6698 14.1482 22.0147 14.6986 21.3333C14.8034 21.2023 14.882 21.1498 15.0655 21.2023C15.9041 21.4381 16.7427 21.6478 17.5813 21.8836C18.4462 22.1195 19.18 21.5954 19.2062 20.7043C19.2586 19.8395 19.311 18.9747 19.3372 18.0836C19.3372 17.874 19.442 17.7954 19.5993 17.7429C20.3855 17.4547 21.1979 17.1402 21.9841 16.8257C22.8227 16.4064 23.0848 15.5678 22.5869 14.8078ZM16.3234 10.5098L11.082 15.7512C10.951 15.8823 10.7676 15.9871 10.5841 16.0133C10.5317 16.0133 10.4531 16.0395 10.4007 16.0395C10.1648 16.0395 9.90273 15.9347 9.71928 15.7512L7.57032 13.6023C7.20342 13.2354 7.20342 12.6326 7.57032 12.2657C7.93721 11.8988 8.53997 11.8988 8.90687 12.2657L10.3745 13.7333L14.9345 9.17329C15.3014 8.80639 15.9041 8.80639 16.271 9.17329C16.6903 9.54018 16.6903 10.1429 16.3234 10.5098Z" fill="#25ACAB"/>
</svg>
