<svg width="25" height="24" viewBox="0 0 25 24" fill="none" xmlns="http://www.w3.org/2000/svg">
<g clip-path="url(#clip0_3473_7292)">
<path d="M23.6866 19.8831H22.0339C21.8624 19.8831 21.6954 19.9372 21.5566 20.0378L17.52 22.9625C16.9822 23.3521 16.2294 22.9679 16.2294 22.3038V20.6965C16.2294 20.2473 15.8652 19.8831 15.416 19.8831H1.31342C0.864172 19.8831 0.5 19.5188 0.5 19.0696V1.69233C0.5 1.24308 0.864172 0.878906 1.31342 0.878906H23.6866C24.1358 0.878906 24.5 1.24308 24.5 1.69233V19.0696C24.5 19.5188 24.1358 19.8831 23.6866 19.8831Z" fill="#998350" fill-opacity="0.18"/>
<path d="M23.6863 0.878906H12.4941V19.8831H15.4157C15.865 19.8831 16.2291 20.2472 16.2291 20.6965V22.3037C16.2291 22.9679 16.982 23.3521 17.5198 22.9624L21.5564 20.0378C21.6952 19.9372 21.8623 19.8831 22.0336 19.8831H23.6863C24.1356 19.8831 24.4998 19.5189 24.4998 19.0696V1.69233C24.4998 1.24308 24.1356 0.878906 23.6863 0.878906Z" fill="#998350" fill-opacity="0.28"/>
<path d="M12.5 16.461C15.9065 16.461 18.668 13.6995 18.668 10.293C18.668 6.88651 15.9065 4.125 12.5 4.125C9.09354 4.125 6.33203 6.88651 6.33203 10.293C6.33203 13.6995 9.09354 16.461 12.5 16.461Z" fill="white"/>
<path d="M12.4941 4.125V16.4609C14.0745 16.4624 15.6554 15.8602 16.8612 14.6544C19.27 12.2456 19.27 8.34028 16.8612 5.93152C15.6554 4.72571 14.0745 4.12355 12.4941 4.125Z" fill="#F5F5FC"/>
<path d="M17.3593 5.43436C16.0616 4.13658 14.336 3.42188 12.5007 3.42188C10.6653 3.42188 8.93983 4.13662 7.6421 5.43441C4.96305 8.11345 4.96305 12.4726 7.6421 15.1516C8.93988 16.4495 10.6653 17.1642 12.5007 17.1642C14.336 17.1642 16.0616 16.4494 17.3593 15.1516C20.0384 12.4726 20.0384 8.11345 17.3593 5.43436ZM8.63641 6.42872C9.70183 5.36334 11.1012 4.83066 12.5007 4.83066C13.6789 4.83066 14.857 5.20833 15.8358 5.96344L8.17118 13.6282C6.51907 11.4867 6.67413 8.39109 8.63641 6.42872ZM16.365 14.1573C15.3328 15.1895 13.9604 15.7579 12.5007 15.7579C11.2781 15.7579 10.1168 15.3589 9.16525 14.6228L16.8302 6.95784C18.4823 9.09933 18.3273 12.195 16.365 14.1573Z" fill="url(#paint0_linear_3473_7292)"/>
<path d="M12.5001 3.42188C12.4982 3.42188 12.4963 3.42192 12.4944 3.42192V4.83075C12.4963 4.83075 12.4982 4.8307 12.5001 4.8307C13.6783 4.8307 14.8564 5.20838 15.8352 5.96348L12.4944 9.30431V11.293L16.8296 6.95784C18.4816 9.09938 18.3266 12.195 16.3643 14.1573C15.3321 15.1895 13.9597 15.7579 12.5 15.7579C12.4981 15.7579 12.4963 15.7578 12.4944 15.7578V17.1641C12.4963 17.1641 12.4981 17.1642 12.5 17.1642C14.3354 17.1642 16.0609 16.4494 17.3586 15.1516C20.0377 12.4726 20.0377 8.11345 17.3586 5.43441C16.0609 4.13658 14.3354 3.42188 12.5001 3.42188Z" fill="url(#paint1_linear_3473_7292)"/>
</g>
<defs>
<linearGradient id="paint0_linear_3473_7292" x1="5.63213" y1="10.293" x2="19.3693" y2="10.293" gradientUnits="userSpaceOnUse">
<stop stop-color="#FF9375"/>
<stop offset="1" stop-color="#FF0463"/>
</linearGradient>
<linearGradient id="paint1_linear_3473_7292" x1="12.494" y1="10.293" x2="19.3682" y2="10.293" gradientUnits="userSpaceOnUse">
<stop stop-color="#FF9375"/>
<stop offset="1" stop-color="#FF0463"/>
</linearGradient>
<clipPath id="clip0_3473_7292">
<rect width="24" height="24" fill="white" transform="translate(0.5)"/>
</clipPath>
</defs>
</svg>
