<svg width="22" height="21" viewBox="0 0 22 21" fill="none" xmlns="http://www.w3.org/2000/svg">
<path d="M14.537 5.81914C13.6413 4.88516 12.6891 3.69999 12.0183 2.5935C11.7217 2.10413 11.5068 1.55197 11.2239 1.07559C11.1884 1.01641 11.2449 0.955057 11.1001 0.983927L8.09809 4.26731C10.0727 6.23778 12.4445 7.79827 14.9943 8.9358L17.1411 9.71605C11.5553 9.78678 5.92597 9.40929 0.500002 8.05667L0.500001 13.9031C1.66783 13.6137 2.84506 13.3401 4.03169 13.1315C8.34917 12.3729 12.7585 12.186 17.1411 12.2437L15.1904 12.9309C12.9568 13.9204 10.7941 15.2016 8.96419 16.8249C8.68273 17.0746 8.44323 17.4521 8.09737 17.5849L11.2072 20.9766C13.1406 16.8306 16.9668 13.1409 21.3197 11.6107C21.633 11.4411 21.4326 10.7107 21.476 10.3736C19.2438 9.73048 17.097 8.24938 15.4053 6.68528C15.0826 6.49473 14.71 6.1721 14.537 5.81914Z" fill="white"/>
</svg>
