<svg width="450" height="117" viewBox="0 0 450 117" fill="none" xmlns="http://www.w3.org/2000/svg">
<path opacity="0.7" d="M1303 61.8535C1140.64 65.7431 978.196 68.8867 815.382 67.8022C717.799 67.152 620.831 63.9458 524.479 58.1836C457.476 54.0846 389.769 55.0882 322.616 57.2976C199.26 61.3574 77.3563 58.7231 -44.8707 51.8341C-191.123 43.5878 -338.48 38.554 -486.937 41.5226C-530.389 42.3917 -573.656 44.5184 -616.996 46.067V32.7115C-589.463 31.5117 -561.987 30.0693 -534.376 29.1508C-423.024 25.4477 -312.16 28.2987 -201.77 33.429C-110.12 37.688 -18.8936 43.0899 72.6429 47.6591C142.824 51.1594 213.219 49.2734 283.221 46.9705C391.61 43.4062 498.936 43.0755 606.686 50.6887C687.048 56.367 769.431 54.8565 851.102 53.5631C960.452 51.8305 1069.77 49.743 1179.11 47.9506C1211.97 47.411 1244.9 47.3881 1277.78 47.0145C1286.21 46.9192 1294.6 46.3965 1303.01 46.0706L1303 61.8535Z" fill="#1A5657"/>
<path opacity="0.9" d="M-617 59.2804C-486.395 53.7613 -355.377 53.9846 -224.699 57.7463C-89.715 61.631 44.7807 67.6154 179.694 71.8641C225.843 73.3179 272.699 73.0186 319.064 72.2581C426.554 70.5007 532.898 72.6383 639.283 78.8363C766.227 86.228 894.604 85.9697 1022.8 83.9818C1116.23 82.5334 1209.6 80.4893 1303 78.7102V93.2812C1231.67 94.6783 1160.36 96.3319 1088.99 97.4146C972.72 99.1762 856.445 99.0356 740.539 94.8063C651.453 91.5552 562.593 87.5153 473.492 84.2956C444.804 83.2576 415.688 83.4266 386.782 83.5394C273.248 83.9764 160.323 82.7549 47.5255 76.6504C-76.6346 69.9346 -202.425 70.3945 -327.794 70.4229C-424.201 70.4386 -520.602 71.0626 -617 71.4247V59.2804Z" fill="#1A5657"/>
<path opacity="0.95" d="M1303 123.394C1199.65 126.882 1096.01 130.324 992.312 127.939C873.611 125.212 755.311 120.29 636.737 116.793C546.4 114.129 455.851 112.387 365.479 109.894C280.204 107.544 194.843 105.385 109.882 101.977C20.0286 98.3741 -69.3685 96.467 -159.747 99.7917C-275.026 104.032 -390.792 102.93 -506.46 101.762C-543.288 101.391 -580.153 101.597 -617 101.538V88.1803C-529.186 88.1736 -441.357 88.4018 -353.549 88.091C-271.36 87.8013 -189.189 87.0046 -107.018 86.3112C-32.5958 85.6836 41.2158 87.6528 115.066 91.059C181.287 94.1145 247.997 97.0041 314.633 97.5201C447.473 98.5461 579.27 102.103 710.776 109.173C842.846 116.272 976.304 116.398 1109.6 114.137C1174.1 113.042 1238.54 111.421 1303 110.037V123.394Z" fill="#1A5657"/>
<path opacity="0.5" d="M-617 8.42275C-461.001 -3.72518 -306.308 -0.87483 -152.076 12.8814C-49.5875 22.0227 54.0891 29.1935 160.484 27.622C223.882 26.6842 287.068 23.9455 350.462 23.0191C413.226 22.0981 476.35 21.17 538.936 22.5031C645.047 24.7662 750.723 24.8568 856.575 21.3601C1005.04 16.453 1153.6 11.8102 1303 13.2822V29.065C1241.77 29.7488 1180.51 30.1785 1119.33 31.1676C1004.9 33.0163 890.49 35.0441 776.095 37.2509C701.614 38.639 627.352 37.6257 553.807 33.4766C469.102 28.7848 384.205 28.6603 299.486 33.1036C148.988 40.846 1.1087 36.1489 -146.569 24.9177C-244.21 17.4946 -342.835 10.8977 -443.251 12.4735C-501.341 13.3866 -559.102 16.9702 -617 19.3528V8.42275Z" fill="#1A5657"/>
</svg>
