<svg width="64" height="64" viewBox="0 0 64 64" fill="none" xmlns="http://www.w3.org/2000/svg">
<path d="M32 64L28.2334 35.7666H35.7666L32 64ZM26.4619 37.0684L26.4756 39.6582L15.418 48.1123L23.8721 37.0547L26.4619 37.0684ZM48.582 48.1123L37.5244 39.6582L37.5381 37.0684L40.1279 37.0547L48.582 48.1123ZM19.0156 44.5146L25.8008 39.3281L25.792 37.7383L24.2031 37.7305L19.0156 44.5146ZM38.208 37.7383L38.2002 39.3271L44.9844 44.5146L39.7979 37.7305L38.208 37.7383ZM28.2334 35.7666L0 32L28.2334 28.2334V35.7666ZM64 32L35.7666 35.7666V28.2334L64 32ZM35.7666 28.2334H28.2334L32 0L35.7666 28.2334ZM26.4756 24.3418L26.4619 26.9316L23.8721 26.9453L15.418 15.8877L26.4756 24.3418ZM40.1279 26.9453L37.5381 26.9316L37.5244 24.3418L48.582 15.8877L40.1279 26.9453ZM24.2021 26.2695L25.792 26.2617L25.7998 24.6729L19.0156 19.4854L24.2021 26.2695ZM38.1992 24.6719L38.208 26.2617L39.7969 26.2695L44.9844 19.4854L38.1992 24.6719Z" fill="#25ACAB"/>
</svg>
