<svg width="23" height="24" viewBox="0 0 23 24" fill="none" xmlns="http://www.w3.org/2000/svg">
<rect y="0.570312" width="22.8594" height="22.8594" rx="11.4297" fill="#33E0A0"/>
<g clip-path="url(#clip0_3495_4059)">
<path d="M10.2828 15.7581C8.73826 17.188 6.35599 17.0881 4.93282 15.6432C4.16742 14.866 3.78972 13.9247 3.81037 12.8344C3.83103 11.7413 4.28069 10.8314 5.05205 10.0642C4.63398 9.60902 4.22312 9.1617 3.81256 8.71439L3.82007 8.69717C3.8473 8.69717 3.87452 8.69717 3.90175 8.69717C4.77261 8.69717 5.64316 8.69717 6.51402 8.69843C6.57817 8.69843 6.63136 8.68434 6.68581 8.64803C7.69498 7.97283 8.79803 7.52959 9.99339 7.31736C10.6856 7.19465 11.3831 7.15584 12.0843 7.2031C13.6468 7.30859 15.0806 7.79504 16.3839 8.66525C16.4161 8.68684 16.463 8.69561 16.5031 8.69561C17.3787 8.69717 18.2542 8.69686 19.1295 8.69686C19.1551 8.69686 19.1811 8.69686 19.2067 8.69686L19.2183 8.71283C18.8096 9.15795 18.401 9.60307 17.9867 10.0545C18.0164 10.0879 18.0436 10.1199 18.0715 10.1509C18.4288 10.5484 18.737 10.9769 18.9414 11.4765C19.6993 13.3296 18.8707 15.5042 17.0714 16.3813C16.4402 16.689 15.7752 16.8211 15.0771 16.7679C14.2038 16.7015 13.439 16.371 12.7843 15.7878C12.774 15.7787 12.7631 15.7703 12.7471 15.7575C12.3378 16.2026 11.9307 16.6458 11.5148 17.0985C11.103 16.6505 10.6953 16.2063 10.2828 15.7581ZM15.3647 15.5221C16.8076 15.5174 17.9685 14.3542 17.9654 12.9164C17.9623 11.4778 16.7947 10.3177 15.3541 10.3218C13.914 10.3258 12.7609 11.4941 12.7643 12.9449C12.7678 14.3623 13.9425 15.5264 15.3647 15.5221ZM7.65712 15.5221C9.0831 15.5258 10.2597 14.3661 10.265 12.9515C10.2703 11.4966 9.11815 10.329 7.67464 10.3212C6.23239 10.313 5.06675 11.4931 5.06331 12.9171C5.05987 14.3504 6.22143 15.5183 7.65712 15.5221ZM14.3821 9.02022C12.4664 8.26802 10.561 8.2677 8.64752 9.02022C10.2268 9.71952 11.2945 10.8126 11.5148 12.5126C11.7364 10.8132 12.8022 9.72077 14.3821 9.02022Z" fill="#1D1D1D"/>
<path d="M15.3715 11.5488C16.1316 11.5523 16.7396 12.1692 16.7362 12.9343C16.7327 13.6849 16.1113 14.2988 15.3593 14.2941C14.5955 14.2891 13.9919 13.6724 13.9956 12.9008C13.9991 12.1548 14.6193 11.5457 15.3715 11.5491V11.5488Z" fill="#1A1A1A"/>
<path d="M7.66144 11.5489C8.4087 11.5445 9.03047 12.158 9.03485 12.9046C9.03955 13.6693 8.43154 14.29 7.67364 14.2944C6.91888 14.2988 6.29867 13.6893 6.29397 12.9384C6.28928 12.1693 6.89509 11.5532 7.66113 11.5489H7.66144Z" fill="#1A1A1A"/>
</g>
<defs>
<clipPath id="clip0_3495_4059">
<rect width="15.413" height="9.91476" fill="white" transform="translate(3.81006 7.18359)"/>
</clipPath>
</defs>
</svg>
