<svg xmlns="http://www.w3.org/2000/svg" width="74" height="71" viewBox="0 0 74 71" fill="none">
  <rect x="0.621094" y="8.4043" width="61.6599" height="61.6599" rx="30.83" fill="white" fill-opacity="0.29"/>
  <path d="M10.418 60.2731L13.3876 49.4432C11.5601 46.2762 10.5945 42.6732 10.5945 38.9975C10.5945 27.4719 19.9811 18.0957 31.4963 18.0957C37.0929 18.0957 42.3365 20.2762 46.2822 24.2219C50.2279 28.1676 52.398 33.4216 52.398 39.0079C52.398 50.5334 43.0115 59.9096 31.4963 59.9096H31.4859C27.9867 59.9096 24.5498 59.0271 21.4971 57.3657L10.418 60.2731Z" fill="#15AB54"/>
  <path d="M9.66406 61.0287L12.7375 49.8146C10.8478 46.5334 9.84058 42.8058 9.85096 38.9951C9.85096 27.0542 19.5698 17.3457 31.5107 17.3457C37.3047 17.3457 42.7456 19.5989 46.8262 23.69C50.9173 27.781 53.1705 33.2219 53.1601 39.0055C53.1601 50.9464 43.4413 60.6549 31.5004 60.6549H31.49C27.8662 60.6549 24.3047 59.7411 21.1377 58.0175L9.66406 61.0287ZM21.6777 54.0925L22.3318 54.4871C25.0938 56.1277 28.2607 56.9895 31.49 56.9999H31.5004C41.4165 56.9999 49.4948 48.932 49.4948 39.0055C49.4948 34.198 47.6258 29.6812 44.2304 26.2754C40.835 22.8697 36.3079 21.0007 31.5004 21.0007C21.5738 21.0007 13.4955 29.0686 13.4955 38.9951C13.4955 42.3905 14.4404 45.7028 16.2471 48.5686L16.6729 49.2539L14.8558 55.8889L21.6777 54.0925Z" fill="white"/>
  <path d="M26.0902 29.9312C25.6852 29.0279 25.2595 29.0071 24.8753 28.9967C24.5638 28.9863 24.2004 28.9863 23.837 28.9863C23.4736 28.9863 22.8921 29.1213 22.3937 29.6612C21.8953 30.2012 20.5039 31.5095 20.5039 34.178C20.5039 36.8362 22.4456 39.4113 22.7156 39.7747C22.9855 40.1381 26.464 45.7763 31.9568 47.9464C36.5255 49.7531 37.46 49.3897 38.4464 49.2963C39.4432 49.2028 41.6445 47.9879 42.1014 46.7212C42.5479 45.4544 42.5479 44.3745 42.4129 44.1461C42.2779 43.9177 41.9145 43.7827 41.3745 43.5127C40.8346 43.2427 38.1764 41.9344 37.678 41.7475C37.1796 41.5606 36.8162 41.4776 36.4632 42.0175C36.0998 42.5574 35.0614 43.7723 34.7499 44.1357C34.4384 44.4991 34.1165 44.5407 33.5766 44.2707C33.0367 44.0007 31.2923 43.4296 29.226 41.5814C27.6165 40.1485 26.5263 38.3729 26.2148 37.833C25.9033 37.293 26.1836 37.0023 26.4536 36.7323C26.6924 36.4935 26.9935 36.099 27.2635 35.7875C27.5335 35.476 27.6269 35.2475 27.8034 34.8841C27.98 34.5207 27.8969 34.2092 27.7619 33.9392C27.6269 33.6692 26.5678 31.0007 26.0902 29.9312Z" fill="white"/>
  <g filter="url(#filter0_d_604_10726)">
    <circle cx="55.6728" cy="18.3135" r="6.60642" fill="#14FF00"/>
  </g>
  <defs>
    <filter id="filter0_d_604_10726" x="38.0557" y="0.696328" width="35.2323" height="35.2343" filterUnits="userSpaceOnUse" color-interpolation-filters="sRGB">
      <feFlood flood-opacity="0" result="BackgroundImageFix"/>
      <feColorMatrix in="SourceAlpha" type="matrix" values="0 0 0 0 0 0 0 0 0 0 0 0 0 0 0 0 0 0 127 0" result="hardAlpha"/>
      <feOffset/>
      <feGaussianBlur stdDeviation="5.50535"/>
      <feComposite in2="hardAlpha" operator="out"/>
      <feColorMatrix type="matrix" values="0 0 0 0 0.305882 0 0 0 0 0.94902 0 0 0 0 0.25098 0 0 0 0.6 0"/>
      <feBlend mode="normal" in2="BackgroundImageFix" result="effect1_dropShadow_604_10726"/>
      <feBlend mode="normal" in="SourceGraphic" in2="effect1_dropShadow_604_10726" result="shape"/>
    </filter>
  </defs>
</svg>