<svg width="20" height="21" viewBox="0 0 20 21" fill="none" xmlns="http://www.w3.org/2000/svg">
<path d="M12.9845 5.4007C14.4128 5.4007 15.5706 4.24287 15.5706 2.81461C15.5706 1.38635 14.4128 0.228516 12.9845 0.228516C11.5563 0.228516 10.3984 1.38635 10.3984 2.81461C10.3984 4.24287 11.5563 5.4007 12.9845 5.4007Z" fill="#C83E21"/>
<path d="M7.10656 3.16602C5.67828 3.16602 4.52047 4.32383 4.52047 5.75211C4.52047 5.86184 4.52809 5.96973 4.54137 6.07586H9.67176C9.685 5.96977 9.69266 5.86184 9.69266 5.75211C9.69266 4.32387 8.53484 3.16602 7.10656 3.16602ZM12.2014 10.3888H17.768V8.2498C17.768 7.72402 17.3418 7.29785 16.8161 7.29785H1.7957C1.26992 7.29785 0.84375 7.7241 0.84375 8.2498V19.2773C0.84375 19.8031 1.26992 20.2293 1.7957 20.2293H16.8161C17.3419 20.2293 17.768 19.803 17.768 19.2773V17.1383H12.2014C11.0546 17.1383 10.1216 16.2053 10.1216 15.0585V12.4686C10.1216 11.3218 11.0546 10.3888 12.2014 10.3888Z" fill="#C83E21"/>
<path d="M18.3311 11.6875H12.2018C11.771 11.6875 11.4219 12.0366 11.4219 12.4674V15.0573C11.4219 15.488 11.771 15.8372 12.2018 15.8372H18.3311C18.7619 15.8372 19.111 15.488 19.111 15.0573V12.4674C19.111 12.0366 18.7618 11.6875 18.3311 11.6875ZM13.492 14.6778C12.9864 14.6778 12.5765 14.2679 12.5765 13.7623C12.5765 13.2568 12.9864 12.8469 13.492 12.8469C13.9975 12.8469 14.4074 13.2568 14.4074 13.7623C14.4074 14.2679 13.9975 14.6778 13.492 14.6778Z" fill="#C83E21"/>
</svg>
