<svg width="21" height="21" viewBox="0 0 21 21" fill="none" xmlns="http://www.w3.org/2000/svg">
<path d="M10.975 11.3289C11.585 11.3289 12.075 10.8339 12.075 10.2289C12.075 9.62391 11.585 9.12891 10.975 9.12891C10.37 9.12891 9.875 9.62391 9.875 10.2289C9.875 10.8339 10.37 11.3289 10.975 11.3289Z" fill="#C83E21"/>
<path d="M10.9765 0.228516C5.45157 0.228516 0.976562 4.70353 0.976562 10.2285C0.976562 15.7485 5.45157 20.2285 10.9765 20.2285C16.5015 20.2285 20.9765 15.7485 20.9765 10.2285C20.9766 4.70353 16.5015 0.228516 10.9765 0.228516ZM13.1665 12.4185L4.97654 16.2285L8.78654 8.03849L16.9765 4.2285L13.1665 12.4185Z" fill="#C83E21"/>
</svg>
