<svg width="21" height="20" viewBox="0 0 21 20" fill="none" xmlns="http://www.w3.org/2000/svg">
<path d="M7.69731 11.6329C7.69731 11.9321 7.45256 12.1767 7.1535 12.1767H4.43443C4.13537 12.1767 3.89062 11.932 3.89062 11.6329V9.81546C3.89062 9.51634 4.13537 9.27166 4.43443 9.27166H7.1535C7.45262 9.27166 7.69731 9.5164 7.69731 9.81546V11.6329ZM7.69731 16.4089C7.69731 16.708 7.45256 16.9527 7.1535 16.9527H4.43443C4.13537 16.9527 3.89062 16.7079 3.89062 16.4089V14.5914C3.89062 14.2923 4.13537 14.0476 4.43443 14.0476H7.1535C7.45262 14.0476 7.69731 14.2923 7.69731 14.5914V16.4089ZM12.8787 11.6329C12.8787 11.9321 12.634 12.1767 12.3349 12.1767H9.61577C9.31664 12.1767 9.07196 11.932 9.07196 11.6329V9.81546C9.07196 9.51634 9.3167 9.27166 9.61577 9.27166H12.3349C12.634 9.27166 12.8787 9.5164 12.8787 9.81546V11.6329ZM12.8787 16.4089C12.8787 16.708 12.634 16.9527 12.3349 16.9527H9.61577C9.31664 16.9527 9.07196 16.7079 9.07196 16.4089V14.5914C9.07196 14.2923 9.3167 14.0476 9.61577 14.0476H12.3349C12.634 14.0476 12.8787 14.2923 12.8787 14.5914V16.4089ZM17.9966 11.6329C17.9966 11.9321 17.7519 12.1767 17.4528 12.1767H14.7337C14.4345 12.1767 14.1899 11.932 14.1899 11.6329V9.81546C14.1899 9.51634 14.4346 9.27166 14.7337 9.27166H17.4528C17.7519 9.27166 17.9966 9.5164 17.9966 9.81546V11.6329ZM17.9966 16.4089C17.9966 16.708 17.7519 16.9527 17.4528 16.9527H14.7337C14.4345 16.9527 14.1899 16.7079 14.1899 16.4089V14.5914C14.1899 14.2923 14.4346 14.0476 14.7337 14.0476H17.4528C17.7519 14.0476 17.9966 14.2923 17.9966 14.5914V16.4089ZM5.2476 5.2046C4.9227 5.2046 4.6569 4.9388 4.6569 4.61384V1.41693C4.6569 1.09198 4.9227 0.826172 5.2476 0.826172H6.4765C6.80139 0.826172 7.06726 1.09198 7.06726 1.41693V4.61384C7.06726 4.93874 6.80145 5.2046 6.4765 5.2046H5.2476ZM15.4788 5.2046C15.1539 5.2046 14.8881 4.9388 14.8881 4.61384V1.41693C14.8881 1.09198 15.1539 0.826172 15.4788 0.826172H16.7077C17.0325 0.826172 17.2984 1.09198 17.2984 1.41693V4.61384C17.2984 4.93874 17.0326 5.2046 16.7077 5.2046H15.4788Z" fill="#C83E21"/>
<path d="M20.406 3.24219H18.6864C18.5882 3.24219 18.4064 3.24219 18.4064 3.4687V4.4799C18.4064 5.44534 17.8716 6.23081 16.6555 6.23081H15.5241C14.371 6.23081 13.7732 5.44534 13.7732 4.4799L13.7733 3.52151C13.7733 3.34045 13.6467 3.24219 13.4959 3.24219H8.50138C8.39057 3.24219 8.17993 3.24219 8.17993 3.52906V4.4799C8.17993 5.44534 7.69853 6.23081 6.42902 6.23081H5.29765C3.89185 6.23081 3.54674 5.44534 3.54674 4.4799V3.56678C3.54674 3.31027 3.31582 3.24219 3.1901 3.24219H1.54716C1.23331 3.24219 0.976562 3.49894 0.976562 4.23552V19.4824C0.976562 19.3735 1.23331 19.6303 1.54716 19.6303H20.406C20.7198 19.6303 20.9766 19.3735 20.9766 19.4824V4.23552C20.9766 3.49894 20.7198 3.24219 20.406 3.24219ZM19.7086 17.7917C19.7086 18.1055 19.4519 18.3623 19.138 18.3623H2.81517C2.50132 18.3623 2.24457 18.1055 2.24457 17.7917V8.34398C2.24457 8.03013 2.50132 7.77338 2.81517 7.77338H19.138C19.4519 7.77338 19.7086 8.03013 19.7086 8.34398V17.7917Z" fill="#C83E21"/>
</svg>
