<svg width="76" height="77" viewBox="0 0 76 77" fill="none" xmlns="http://www.w3.org/2000/svg">
<path fill-rule="evenodd" clip-rule="evenodd" d="M42.5661 34.1651L38.1307 0.921875L33.6952 34.1651H42.5661ZM33.6973 43.0358L38.1328 76.2791L42.5682 43.0358H33.6973ZM75.8103 38.5994L42.5671 43.0349V34.164L75.8103 38.5994ZM44.6543 32.6313L47.703 32.6472L57.6577 19.6278L44.6377 29.5819L44.6543 32.6313ZM45.4422 31.842L45.4325 29.9707L53.4206 23.8636L47.3135 31.8517L45.4422 31.842ZM28.5605 44.5538L31.6092 44.5696L31.6258 47.619L18.6057 57.5731L28.5605 44.5538ZM30.8309 47.2303L30.8213 45.3589L28.9499 45.3493L22.8428 53.3374L30.8309 47.2303ZM31.6106 32.6299L31.6265 29.5812L18.6072 19.6264L28.5612 32.6464L31.6106 32.6299ZM30.8213 31.842L28.95 31.8516L22.8429 23.8635L30.831 29.9706L30.8213 31.842ZM44.637 47.6198L44.6528 44.5711L47.7022 44.5545L57.6563 57.5745L44.637 47.6198ZM47.3135 45.3493L45.4421 45.359L45.4324 47.2303L53.4205 53.3374L47.3135 45.3493ZM33.6964 34.1661L0.453125 38.6015L33.6964 43.037V34.1661Z" fill="#25ACAB"/>
</svg>
