<svg width="18" height="23" viewBox="0 0 18 23" fill="none" xmlns="http://www.w3.org/2000/svg">
<g clip-path="url(#clip0_1774_5380)">
<path d="M7.80039 3.08203H8.83047V5.14318H7.80039V3.08203ZM7.80039 16.4721H8.83047V18.5332H7.80039V16.4721ZM13.9799 10.2926H16.041V11.3227H13.9799V10.2926ZM0.589844 10.2926H2.65099V11.3227H0.589844V10.2926Z" fill="#FCFF49"/>
<path d="M8.31484 19.0477C3.77105 19.0477 0.0742188 15.3508 0.0742188 10.807C0.0742188 6.26323 3.77105 2.56641 8.31484 2.56641C12.8586 2.56641 16.5555 6.26323 16.5555 10.807C16.5555 15.3508 12.8586 19.0477 8.31484 19.0477ZM8.31484 3.59648C4.33891 3.59648 1.1043 6.83109 1.1043 10.807C1.1043 14.783 4.33891 18.0176 8.31484 18.0176C12.2908 18.0176 15.5254 14.783 15.5254 10.807C15.5254 6.83109 12.2908 3.59648 8.31484 3.59648Z" fill="#FCFF49"/>
<path d="M11.4118 7.71165C11.3541 7.65414 11.2802 7.61575 11.2 7.60168C11.1198 7.5876 11.0372 7.59854 10.9634 7.63299L7.12454 9.42679C7.04015 9.46628 6.97232 9.53417 6.93291 9.61859L5.14265 13.4538C5.10825 13.5276 5.09737 13.6102 5.11147 13.6904C5.12558 13.7706 5.16399 13.8445 5.22151 13.9022C5.29606 13.9766 5.39712 14.0184 5.50248 14.0184C5.55905 14.0184 5.6162 14.0064 5.66972 13.9812L9.50855 12.1948C9.59337 12.1555 9.66149 12.0874 9.70075 12.0026L11.491 8.16002C11.5254 8.0862 11.5363 8.00356 11.5221 7.92334C11.508 7.84312 11.4694 7.76921 11.4118 7.71165ZM7.41249 10.4676L8.65949 11.7147L6.32271 12.8021L7.41249 10.4676Z" fill="#FCFF49"/>
</g>
<defs>
<clipPath id="clip0_1774_5380">
<rect width="16.4813" height="16.4813" fill="white" transform="translate(0.0742188 2.56641)"/>
</clipPath>
</defs>
</svg>
