<svg width="1600" height="27" viewBox="0 0 1600 27" fill="none" xmlns="http://www.w3.org/2000/svg">
<path d="M1676.81 27L1676.81 17L1627.68 17C1625.76 16.87 1623.8 16.751 1621.89 16.618C1621.38 16.748 1621.06 16.875 1620.85 17L1611.79 17C1611.69 16.959 1611.54 16.918 1611.3 16.876C1609.79 16.902 1608.95 16.967 1608.2 17L1606.61 17C1606.2 16.98 1605.74 16.945 1605.15 16.886C1604.99 16.93 1604.87 16.967 1604.77 17L1602.53 17C1602.9 16.29 1606.13 16.252 1606.12 15.448C1597.51 15.197 1592.82 14.753 1589.35 16.298C1591.13 16.608 1594.44 16.833 1595.51 16.288C1596.39 16.456 1595.62 16.692 1596.77 17L1577.31 17C1575.35 16.825 1573.48 16.661 1571.74 16.532C1570.12 17.099 1564.78 17.024 1562.05 16.753C1561.28 16.833 1560.54 16.916 1559.78 16.999L1538.5 16.999C1534.45 16.774 1529.89 16.668 1526.01 16.402C1523.64 16.507 1522.23 16.839 1520.1 16.999L1515.42 16.999C1515.52 16.784 1515.21 16.664 1514.56 16.626C1514.59 16.388 1514.85 16.206 1515.28 16.063C1517.75 16.074 1520.36 16.053 1522.13 16.235C1522.7 16.011 1524.22 16.001 1523.9 15.576C1526.43 15.579 1528.96 15.584 1530.79 15.422C1544.26 15.038 1562.75 14.239 1570.63 16.541C1572.33 16.288 1575.08 16.267 1574.2 15.43C1576.4 15.49 1576.04 16.192 1578.95 16.077C1588.77 14.721 1597.71 14.832 1609.39 14.011C1609.85 13.306 1607.55 13.331 1609.23 12.909C1610.8 12.822 1611.01 13.077 1611.16 13.346C1612.28 12.904 1610.47 12.488 1615.72 12.671C1615.74 12.561 1615.69 12.464 1615.62 12.375C1616.74 12.404 1617.75 12.456 1618.61 12.546C1620.41 12.125 1618.26 12.142 1617.79 11.726L1621.73 12.028C1621.72 11.813 1621.19 11.621 1620.64 11.487C1619.69 11.477 1618.56 11.498 1617.42 11.562C1617.48 11.167 1616.21 11.103 1616.36 10.687C1615.81 10.764 1615.39 10.873 1615.1 11.009C1614.61 10.759 1614.42 10.437 1614.38 10.084C1613.21 10.086 1612.03 10.088 1610.86 10.09C1611.55 10.673 1609.58 10.622 1609.91 11.119C1609.62 11.119 1609.32 11.12 1609.04 11.12L1609.46 11.327L1609.32 11.391C1609.21 11.383 1609.11 11.375 1609 11.367L1608.59 11.699C1607.97 11.464 1607.53 11.245 1606.53 11.163C1605.53 11.205 1604.54 11.315 1603.9 11.492L1603.38 11.162C1604.39 10.584 1600.37 10.224 1604.18 10.281C1602.19 9.77099 1595.87 10.092 1594.9 10.527C1592.53 10.504 1591.25 10.214 1591.05 9.65499C1590.01 9.73399 1588.71 9.86699 1587.61 10.031L1587.11 9.99299C1587.23 10.014 1587.36 10.032 1587.48 10.05C1585.77 10.313 1584.57 10.653 1585.65 10.99C1581.7 11.626 1574.58 10.79 1569.79 10.816C1566.75 10.832 1566.46 11.86 1564.23 11.05C1564.76 11.88 1562.55 12.092 1561.66 12.6C1552.59 12.777 1544.82 12.822 1538.41 12.885C1535.76 11.718 1529.32 11.486 1524.15 10.943C1524.83 11.805 1520.4 11.514 1519.66 12.055C1517.25 11.89 1514.34 11.849 1513.04 11.413C1510.33 11.727 1509.42 12.443 1506.71 12.754C1502.28 12.005 1498.48 12.5 1492.95 12.753C1492.42 12.505 1492.08 12.23 1491.99 11.931C1486.47 12.701 1477.27 11.903 1473.49 12.369C1474.7 12.635 1473.97 13.34 1475.17 13.601C1474.88 13.886 1472.96 13.781 1471.64 13.816C1470.54 13.764 1470.78 13.407 1471.67 13.406C1465.18 12.508 1456.95 12.677 1448.9 12.823C1447.98 12.774 1447.06 12.732 1446.14 12.701L1445.92 12.873C1445.79 12.875 1445.66 12.877 1445.53 12.879C1445.34 12.71 1445.23 12.541 1445.04 12.372C1443.27 11.925 1440.67 11.656 1438.08 11.733L1444.88 12.888C1441.67 12.931 1438.55 12.941 1435.64 12.845C1433.12 12.605 1434.88 12.444 1434.18 11.952C1436.17 11.941 1436.52 12.345 1438.59 12.06L1438.08 11.733L1439.46 11.617C1439.52 10.461 1432.5 11.061 1432.68 9.87098C1430.15 9.72898 1430.95 10.333 1429.99 10.545L1429.57 10.876L1429.15 11.208C1429.62 11.42 1430.66 11.493 1431.37 11.648C1428.69 11.499 1425.87 11.431 1422.99 11.403C1424.1 11.338 1424.95 11.212 1425.39 10.998L1426.23 10.335C1425.12 10.15 1423.69 10.047 1421.54 10.126C1422.61 10.915 1419.56 10.772 1419.83 11.383C1412.33 11.368 1404.67 11.504 1398.34 11.039C1398.06 10.824 1397.56 10.665 1396.91 10.544L1399.3 10.332C1398.41 10.351 1397.59 10.431 1396.79 10.522C1395.2 10.241 1392.82 10.158 1390.77 9.98797C1390.87 10.078 1390.93 10.158 1390.96 10.231C1387.18 10.232 1382.94 10.342 1381.3 9.84397C1384.25 8.10697 1390.53 7.14897 1399.09 6.73297L1398.67 6.42097L1399.13 6.11597C1399.53 5.68597 1398.56 5.56997 1398.3 5.29697C1377.15 5.08897 1361.39 4.22197 1341.23 3.73897C1334.69 3.58397 1329.13 2.83297 1321.06 2.74696C1317.45 2.71196 1315 2.98697 1312.27 2.55196C1301 3.32096 1295.82 2.96396 1284.08 3.21796C1283.39 3.40096 1283.11 3.68596 1283.16 4.03996L1284.47 3.93396L1284.02 4.24796C1284.94 4.39396 1291.69 3.97596 1291.89 4.84897C1301.44 4.36697 1303.01 4.93397 1310.39 4.40997C1310.92 5.16797 1307.82 5.37797 1304.16 5.65497L1305.47 5.75597L1305.01 6.06597C1309.4 5.78897 1309.3 6.55597 1312.9 6.46097C1314.96 6.11197 1315.78 5.46797 1317.4 5.01797C1318.54 5.22297 1320.63 5.20897 1321.77 5.42297C1321.37 6.99597 1312.7 6.61897 1309.32 7.49497C1312.21 8.27597 1313.43 8.36897 1318.05 8.51297C1316.91 9.42897 1311.35 9.29697 1310.03 10.17C1310.3 10.65 1310.54 11.135 1313.49 10.991C1312.98 11.727 1307.54 11.036 1304.66 11.621L1305.97 11.723L1305.51 12.033C1306.7 12.497 1311.63 12.099 1314.29 12.224C1319.12 13.267 1324.15 14.261 1334.41 14.044C1347.14 11.83 1367.83 12.754 1388.18 12.31C1381.77 13.232 1370.86 13.099 1363.46 13.787C1363.44 13.996 1363.43 14.201 1363.42 14.407C1360.98 14.474 1358.93 14.627 1356.91 14.743C1354 14.55 1351.28 14.31 1348.51 14.08C1348.34 14.252 1348.09 14.399 1347.78 14.526C1347.39 14.477 1347.02 14.44 1346.7 14.435C1342.53 14.358 1338.31 14.417 1334.06 14.533C1333.13 14.401 1332.33 14.261 1331.74 14.127C1330.84 14.336 1329.81 14.518 1328.8 14.701C1321.59 14.956 1314.31 15.285 1307.06 15.323C1304.76 15.335 1302.43 15.348 1300.09 15.362C1296.9 15.129 1293.99 14.852 1291.76 14.68C1290.49 14.506 1287.74 15.033 1285.5 15.453C1284.12 15.463 1282.74 15.472 1281.34 15.482C1278.72 15.244 1275.62 15.389 1272.58 15.551C1269.52 15.577 1266.43 15.605 1263.33 15.635C1262.88 15.581 1262.45 15.513 1262.06 15.423C1261.82 15.513 1261.55 15.588 1261.27 15.655C1258 15.688 1254.69 15.726 1251.38 15.765C1249.6 15.65 1247.82 15.525 1246.22 15.467C1245.82 15.628 1244.92 15.679 1244.56 15.852C1234.23 15.99 1223.8 16.164 1213.38 16.388C1202.1 16.476 1190.51 16.618 1180.29 16.972L1180.33 17L1176.32 17L1176.56 16.979C1171.36 16.594 1163.69 16.823 1157.87 16.591C1158.3 16.722 1158.71 16.857 1159.08 17L1109.69 16.9999C1108.27 16.9499 1106.81 16.9599 1105.33 16.9999L1083.68 16.9999C1083.9 16.7929 1083.99 16.5589 1084.22 16.3559C1082.68 16.3419 1082.02 16.6379 1081.92 16.9319C1081.31 16.9429 1080.75 16.9689 1080.22 16.9999L1073.43 16.9999C1073.79 16.6489 1075.92 16.2749 1075.7 15.7009C1071.64 15.4919 1073.73 14.7759 1071.38 14.4749C1072.46 13.7519 1074.85 13.3419 1075.03 12.4109C1073.43 12.1339 1068.72 12.4709 1069.69 13.4479C1064.14 14.0539 1062.15 13.1829 1058.29 12.8509C1060.15 12.0979 1059.62 11.7399 1060.17 10.9949C1057.2 11.4469 1056.09 10.7549 1053.12 11.2119C1048.29 10.2459 1052.77 9.62494 1054.21 7.91494C1048.5 8.52594 1039.9 9.68994 1034.83 8.36194C1037.4 7.85194 1041.11 7.61994 1044.57 7.31794L1043.27 7.08194L1043.73 6.70194C1039.93 6.45294 1036.7 6.78594 1033.14 7.12994C1030.1 7.09394 1029.85 6.40794 1027.04 6.31694C1023.9 6.34094 1022.27 6.71994 1021.7 7.35494C1019.75 7.27194 1020.93 6.22894 1022.65 6.32394C1017.7 5.72294 1011.06 6.50894 1007.65 6.96394C1010.97 7.68594 1007.83 7.49794 1004.94 7.99594C1001.12 8.66294 998.086 10.0279 995.123 10.2789C995.568 10.4739 996.267 10.6579 997.126 10.8239C993.694 10.5509 990.005 10.4039 985.525 10.4589C984.097 9.07194 989.86 9.30994 990.82 8.46494L989.408 8.36094L989.825 8.02594C984.273 7.27194 980.419 6.09694 973.636 5.64594C973.69 6.01294 973.744 6.38494 973.797 6.75194C967.05 9.67194 944.095 7.64593 933.205 9.50693C918.592 8.76993 904.653 9.00693 889.301 8.74893C886.073 8.80093 885.88 9.53593 882.916 9.64693C879.293 9.70993 878.015 9.18593 875.363 9.00793C867.38 9.95593 860.968 8.90093 855.642 7.95993C852.924 8.26692 848.943 8.29692 847.228 7.76393C847.378 7.58492 848.129 7.54292 848.095 7.32293L846.683 7.21593L847.1 6.88493C843.216 6.41392 841.168 7.29692 837.883 7.57092C832.077 7.08892 826.491 6.73392 820.989 6.73392C819.987 8.36692 816.003 8.62192 811.005 8.52492C805.981 8.42992 802.33 6.44592 798.706 7.23992C797.129 7.08192 794.13 7.41292 792.981 7.73092L794.293 7.83092L793.83 8.14292C793.696 8.66292 792.504 8.93892 790.262 8.96892C789.296 8.32392 791.677 8.46892 792.073 8.14592L790.76 8.04392L791.219 7.73392C789.9 7.08592 785.923 8.00192 785.074 7.53692L785.06 7.74492L784.181 7.74492C782.287 8.71292 777.571 9.27792 771.907 9.50192C769.502 9.19992 767.481 8.80192 768.036 7.76492C764.942 8.05792 761.163 8.19992 758.851 8.66892C757.06 8.57592 755.461 8.39592 753.77 8.25092C753.606 8.10392 753.633 8.00492 754.255 7.99492C753.085 7.39192 747.912 7.71392 745.509 7.39392C746.542 7.08792 746.551 6.87592 745.555 6.57292L744.668 6.67792L743.791 6.57592C735.255 7.56391 732.386 5.41791 728.932 5.15992C733.483 4.90992 735.447 4.05092 736.983 3.08892C730.458 2.64192 722.397 2.55291 717.718 1.67991C720.533 1.08291 726.857 2.04392 726.619 0.0159139C721.995 0.176915 714.182 0.170912 709.832 1.27891C707.337 1.45491 707.574 0.996913 705.436 1.07891C701.433 1.81091 697.869 2.63491 693.867 3.36091C689.635 3.33291 685.496 3.28091 682.452 2.97291C680.168 3.54491 680.122 4.65091 675.315 4.62991C674.694 5.38091 675.836 5.72491 676.978 6.06991C675.544 6.84291 670.225 6.70091 668.105 7.31691C667.94 7.89791 670.216 7.90191 672.455 7.92691C671.925 8.39391 672.181 8.83591 672.875 9.25691C671.038 9.25391 668.936 9.05691 666.679 9.14491C665.619 9.18591 663.746 9.62691 662.082 9.59991C656.883 9.50891 652.734 8.53291 649.818 8.53191C646.565 8.52991 640.798 8.97491 642.617 10.3149C639.939 10.1769 637.509 10.1239 635.078 10.1249C632.491 9.44191 626.195 9.56791 624.175 10.3609C624.111 10.3629 624.057 10.3649 623.993 10.3669L624.057 10.4089C624.011 10.4309 623.956 10.4519 623.919 10.4749C624.002 10.4769 624.093 10.4799 624.175 10.4819L624.504 10.6939L623.124 10.8069C623.691 11.1249 624.66 11.3409 626.021 11.4599C617.824 12.9579 603.467 11.7539 592.647 12.6589C585.875 11.8329 575.119 11.9819 567.534 12.9489C554.21 11.7429 537.943 13.0469 526.721 14.1619C523.449 13.8639 520.854 14.1299 518.121 14.3679C518.121 14.3619 518.121 14.3569 518.121 14.3509C516.851 14.2409 513.552 14.6009 513.735 14.1529C512.739 14.1919 513.232 14.3589 513.726 14.3579C513.589 14.4819 513.159 14.5349 512.94 14.6389C512.894 14.6389 512.849 14.6399 512.812 14.6399C510.235 14.6339 508.17 14.2459 505.684 14.0739L505.83 13.9559C505.218 13.9759 504.596 13.9879 503.966 13.9969C503.226 13.9829 502.476 13.9879 501.718 14.0089C494.242 13.9929 485.862 13.4499 479.465 13.5909C478.305 13.4499 479.931 13.0389 478.652 12.5599C473.854 12.6639 474.055 11.6039 469.915 11.5469C470.089 10.3259 476.806 11.3239 478.761 10.9189C478.88 9.35389 468.243 9.83189 465.648 9.49789C465.885 8.74289 466.918 8.70589 465.739 8.05789C461.818 8.17589 460.238 8.84589 459.479 9.71189C455.102 9.98589 455.193 9.22389 451.592 9.31689C450.249 12.2259 433.58 10.7719 429.385 12.6419C426.525 12.7689 425.31 12.5099 423.244 12.4509C421.106 13.0829 420.201 14.5839 424.844 14.9119C424.734 14.9969 424.624 15.0599 424.515 15.1099C422.093 15.0339 419.79 14.9519 417.807 14.9039C414.791 14.7189 416.637 15.6339 414.179 15.5749C407.115 15.0449 395.563 15.6229 390.729 14.5399C385.584 15.3429 375.998 14.7789 369.308 14.5999C356.688 14.2649 344.296 15.4859 332.15 15.3639C326.832 14.3549 320.417 14.9069 314.294 14.3149C311.579 15.1659 305.886 14.4889 300.357 14.5719C295.806 14.6429 290.835 15.2479 285.516 15.0539C283.496 14.9819 281.65 14.5039 279.832 14.4109C271.991 13.9999 265.173 14.2849 258.411 14.4709C252.059 14.6429 246.375 14.1129 239.722 14.0829C234.184 14.0569 228.591 14.4919 222.98 14.3499C220.422 14.2819 217.89 13.9349 215.468 13.9309C213.193 13.9179 210.488 14.2099 208.048 14.1719C198.324 14.0109 188.226 13.2529 178.283 14.4749C168.843 13.0829 158.772 13.1179 146.289 12.3569C146.728 11.5409 147.632 11.0769 145.101 10.5989C143.465 11.4899 139.307 10.5379 137.744 11.2819C138.073 11.7319 140.312 11.7149 141.573 11.9319C139.444 12.5149 138.064 13.2679 134.345 13.4909C128.98 12.1359 125.635 13.7559 122.391 14.6309C119.851 14.4249 117.822 14.0889 117.548 13.3219C109.734 13.2999 101.82 13.8549 93.4677 14.2709C82.5745 11.4389 67.6052 12.8789 57.1964 14.8129C57.5254 15.9419 60.8427 16.3239 62.9994 16.9969L51.0826 16.9969C50.4247 16.9789 49.8672 16.9809 49.3646 16.9969L2.30982 16.9969C1.44165 16.9329 0.58252 16.8509 -0.285644 16.7329C-1.52844 16.7519 -2.41492 16.8539 -3.1095 16.9969L-10.9686 16.9969C-12.3943 16.1659 -12.5771 15.0299 -17.3109 15.0209C-16.4244 15.4109 -16.1046 15.8869 -16.3605 16.3049C-17.4937 16.2429 -18.8737 16.2288 -18.5629 16.2639C-20.5277 16.7399 -18.2064 16.7358 -16.8265 16.6999C-17.0276 16.8099 -17.2926 16.9099 -17.6033 16.9969L-24.8684 16.9969C-27.5095 16.7028 -29.255 16.1878 -31.1832 15.7179C-33.9066 15.8878 -34.7656 16.3798 -34.7291 16.9968L-38.4486 16.9968C-38.4578 16.9448 -38.4668 16.8918 -38.476 16.8398C-39.0973 16.8418 -39.7096 16.8428 -40.3402 16.8448C-40.3311 16.8958 -40.3219 16.9468 -40.3127 16.9968L-53.9476 16.9968C-55.0443 16.7438 -55.4189 16.3138 -58.0967 16.4538C-57.6031 16.6648 -57.0822 16.8698 -56.2415 16.9968L-77.8086 16.9968L-77.8086 26.9998L1676.81 27ZM1617.4 11.564C1617.19 11.576 1616.98 11.591 1616.77 11.606C1616.95 11.584 1617.15 11.568 1617.4 11.564ZM1607.18 11.637C1607.19 11.693 1607.2 11.752 1607.21 11.812C1606.59 11.813 1605.96 11.815 1605.34 11.817C1605.33 11.732 1605.31 11.642 1605.3 11.552L1607.18 11.637ZM1362.96 7.82297C1365.47 7.37697 1373.08 7.29697 1374.36 8.21197C1369.63 7.96697 1364.06 9.03097 1362.96 7.82297ZM1500.68 16.075C1500.74 16.057 1500.8 16.041 1500.86 16.025C1501.24 16.184 1501.43 16.387 1501.37 16.648C1501.14 16.648 1500.91 16.648 1500.68 16.649C1500.89 16.506 1500.93 16.322 1500.68 16.075ZM1483.77 16.677C1483.81 16.673 1483.85 16.668 1483.89 16.664C1487.07 16.522 1490.12 16.513 1492.36 16.797C1490.12 16.861 1487.85 16.934 1485.58 17.001L1478.52 17.001C1480.18 16.874 1481.91 16.758 1483.62 16.678C1483.67 16.677 1483.72 16.677 1483.77 16.677ZM1400.8 15.906C1402.69 15.963 1404.43 16.077 1405.82 16.254C1403.28 16.462 1400.13 16.496 1400.25 15.988C1400.43 15.962 1400.61 15.934 1400.8 15.906ZM1386.49 11.072C1388.51 11.015 1389.8 11.116 1389.98 11.481C1388.43 11.438 1385.57 11.696 1386.49 11.072ZM1465.08 16.791C1467.31 16.611 1469.84 16.641 1471.53 17L1468.17 17C1467.12 16.944 1466.08 16.879 1465.08 16.791ZM1009.12 11.4919C1008.3 11.6229 1007.47 11.7509 1006.62 11.8749C1005.7 11.7539 1004.78 11.6379 1003.88 11.5269C1005.65 11.5979 1007.46 11.5949 1009.12 11.4919ZM799.492 7.93592C800.037 8.04092 800.563 8.16192 800.724 8.33292C799.62 8.91192 797.983 9.27392 795.965 9.49092C798.031 9.09792 799.352 8.52192 799.492 7.93592ZM616.554 16.7799C616.819 16.8629 617.148 16.9329 617.477 16.9999L613.163 16.9999C613.94 16.8469 614.872 16.7279 616.554 16.7799ZM607.168 16.9999L597.81 16.9999C598.194 16.8799 598.56 16.7579 598.816 16.6099C603.193 16.3449 605.24 16.6569 607.168 16.9999ZM557.875 16.9439C558.414 16.9659 558.971 16.9839 559.529 16.9999L557.271 16.9999C557.463 16.9789 557.664 16.9609 557.875 16.9439Z" fill="#093137"/>
</svg>
