<svg width="20" height="21" viewBox="0 0 20 21" fill="none" xmlns="http://www.w3.org/2000/svg">
<g clip-path="url(#clip0_2482_7376)">
<path d="M13.008 5.67219C14.4362 5.67219 15.5941 4.51435 15.5941 3.08609C15.5941 1.65783 14.4362 0.5 13.008 0.5C11.5797 0.5 10.4219 1.65783 10.4219 3.08609C10.4219 4.51435 11.5797 5.67219 13.008 5.67219Z" fill="#C83E21"/>
<path d="M7.13 3.4375C5.70172 3.4375 4.54391 4.59531 4.54391 6.02359C4.54391 6.13332 4.55152 6.24121 4.5648 6.34734H9.6952C9.70844 6.24125 9.71609 6.13332 9.71609 6.02359C9.71609 4.59535 8.55828 3.4375 7.13 3.4375ZM12.2248 10.6603H17.7915V8.52129C17.7915 7.99551 17.3652 7.56934 16.8395 7.56934H1.81914C1.29336 7.56934 0.867188 7.99558 0.867188 8.52129V19.5488C0.867188 20.0746 1.29336 20.5007 1.81914 20.5007H16.8395C17.3653 20.5007 17.7915 20.0745 17.7915 19.5488V17.4098H12.2248C11.0781 17.4098 10.1451 16.4768 10.1451 15.33V12.7401C10.145 11.5933 11.078 10.6603 12.2248 10.6603Z" fill="#C83E21"/>
<path d="M18.3546 11.9609H12.2252C11.7945 11.9609 11.4453 12.3101 11.4453 12.7408V15.3307C11.4453 15.7615 11.7945 16.1106 12.2252 16.1106H18.3546C18.7853 16.1106 19.1345 15.7615 19.1345 15.3307V12.7408C19.1345 12.3101 18.7852 11.9609 18.3546 11.9609ZM13.5154 14.9512C13.0098 14.9512 12.6 14.5414 12.6 14.0358C12.6 13.5302 13.0098 13.1204 13.5154 13.1204C14.021 13.1204 14.4308 13.5302 14.4308 14.0358C14.4308 14.5414 14.021 14.9512 13.5154 14.9512Z" fill="#C83E21"/>
</g>
<defs>
<clipPath id="clip0_2482_7376">
<rect width="20" height="20" fill="white" transform="translate(0 0.5)"/>
</clipPath>
</defs>
</svg>
