<svg width="20" height="21" viewBox="0 0 20 21" fill="none" xmlns="http://www.w3.org/2000/svg">
<path d="M6.72074 11.9044C6.72074 12.2036 6.476 12.4482 6.17694 12.4482H3.45787C3.1588 12.4482 2.91406 12.2035 2.91406 11.9044V10.0869C2.91406 9.78782 3.1588 9.54314 3.45787 9.54314H6.17694C6.47606 9.54314 6.72074 9.78788 6.72074 10.0869V11.9044ZM6.72074 16.6804C6.72074 16.9795 6.476 17.2242 6.17694 17.2242H3.45787C3.1588 17.2242 2.91406 16.9794 2.91406 16.6804V14.8629C2.91406 14.5638 3.1588 14.3191 3.45787 14.3191H6.17694C6.47606 14.3191 6.72074 14.5638 6.72074 14.8629V16.6804ZM11.9021 11.9044C11.9021 12.2036 11.6574 12.4482 11.3583 12.4482H8.6392C8.34008 12.4482 8.0954 12.2035 8.0954 11.9044V10.0869C8.0954 9.78782 8.34014 9.54314 8.6392 9.54314H11.3583C11.6575 9.54314 11.9021 9.78788 11.9021 10.0869V11.9044ZM11.9021 16.6804C11.9021 16.9795 11.6574 17.2242 11.3583 17.2242H8.6392C8.34008 17.2242 8.0954 16.9794 8.0954 16.6804V14.8629C8.0954 14.5638 8.34014 14.3191 8.6392 14.3191H11.3583C11.6575 14.3191 11.9021 14.5638 11.9021 14.8629V16.6804ZM17.02 11.9044C17.02 12.2036 16.7753 12.4482 16.4762 12.4482H13.7571C13.458 12.4482 13.2133 12.2035 13.2133 11.9044V10.0869C13.2133 9.78782 13.458 9.54314 13.7571 9.54314H16.4762C16.7754 9.54314 17.02 9.78788 17.02 10.0869V11.9044ZM17.02 16.6804C17.02 16.9795 16.7753 17.2242 16.4762 17.2242H13.7571C13.458 17.2242 13.2133 16.9794 13.2133 16.6804V14.8629C13.2133 14.5638 13.458 14.3191 13.7571 14.3191H16.4762C16.7754 14.3191 17.02 14.5638 17.02 14.8629V16.6804ZM4.27104 5.47609C3.94614 5.47609 3.68034 5.21028 3.68034 4.88533V1.68842C3.68034 1.36346 3.94614 1.09766 4.27104 1.09766H5.49993C5.82483 1.09766 6.09069 1.36346 6.09069 1.68842V4.88533C6.09069 5.21022 5.82489 5.47609 5.49993 5.47609H4.27104ZM14.5022 5.47609C14.1773 5.47609 13.9115 5.21028 13.9115 4.88533V1.68842C13.9115 1.36346 14.1773 1.09766 14.5022 1.09766H15.7311C16.056 1.09766 16.3219 1.36346 16.3219 1.68842V4.88533C16.3219 5.21022 16.056 5.47609 15.7311 5.47609H14.5022Z" fill="#C83E21"/>
<path d="M19.4295 3.51172H17.7099C17.6116 3.51172 17.4298 3.51172 17.4298 3.73823V4.74943C17.4298 5.71488 16.8951 6.50034 15.6789 6.50034H14.5475C13.3944 6.50034 12.7966 5.71488 12.7966 4.74943L12.7967 3.79104C12.7967 3.60998 12.6702 3.51172 12.5193 3.51172H7.52482C7.41401 3.51172 7.20337 3.51172 7.20337 3.79859V4.74943C7.20337 5.71488 6.72197 6.50034 5.45246 6.50034H4.32109C2.91529 6.50034 2.57018 5.71488 2.57018 4.74943V3.83631C2.57018 3.5798 2.33926 3.51172 2.21354 3.51172H0.570601C0.256752 3.51172 0 3.76847 0 4.50505V19.7519C0 19.6431 0.256752 19.8998 0.570601 19.8998H19.4294C19.7432 19.8998 20 19.6431 20 19.7519V4.50505C20 3.76847 19.7432 3.51172 19.4295 3.51172ZM18.7321 18.0612C18.7321 18.375 18.4753 18.6318 18.1615 18.6318H1.83861C1.52476 18.6318 1.26801 18.375 1.26801 18.0612V8.61351C1.26801 8.29966 1.52476 8.04291 1.83861 8.04291H18.1615C18.4753 8.04291 18.7321 8.29966 18.7321 8.61351V18.0612Z" fill="#C83E21"/>
</svg>
