<svg width="20" height="21" viewBox="0 0 20 21" fill="none" xmlns="http://www.w3.org/2000/svg">
<g clip-path="url(#clip0_2482_11910)">
<path d="M9.99845 11.5985C10.6084 11.5985 11.0985 11.1035 11.0985 10.4985C11.0985 9.89344 10.6085 9.39844 9.99845 9.39844C9.39344 9.39844 8.89844 9.89344 8.89844 10.4985C8.89844 11.1035 9.39348 11.5985 9.99845 11.5985Z" fill="#C83E21"/>
<path d="M9.99998 0.5C4.47501 0.5 0 4.97501 0 10.5C0 16.02 4.47501 20.5 9.99998 20.5C15.5249 20.5 20 16.02 20 10.5C20 4.97501 15.525 0.5 9.99998 0.5ZM12.19 12.69L3.99998 16.5L7.80998 8.30998L16 4.49998L12.19 12.69Z" fill="#C83E21"/>
</g>
<defs>
<clipPath id="clip0_2482_11910">
<rect width="20" height="20" fill="white" transform="translate(0 0.5)"/>
</clipPath>
</defs>
</svg>
