<svg width="20" height="20" viewBox="0 0 20 20" fill="none" xmlns="http://www.w3.org/2000/svg">
<path d="M4.16669 11.9066C2.62389 12.5872 1.66669 13.5356 1.66669 14.5846C1.66669 16.6557 5.39765 18.3346 10 18.3346C14.6024 18.3346 18.3334 16.6557 18.3334 14.5846C18.3334 13.5356 17.3762 12.5872 15.8334 11.9066M15 6.66797C15 10.0544 11.25 11.668 10 14.168C8.75002 11.668 5.00002 10.0544 5.00002 6.66797C5.00002 3.90654 7.2386 1.66797 10 1.66797C12.7614 1.66797 15 3.90654 15 6.66797ZM10.8334 6.66797C10.8334 7.12821 10.4603 7.5013 10 7.5013C9.53978 7.5013 9.16669 7.12821 9.16669 6.66797C9.16669 6.20773 9.53978 5.83464 10 5.83464C10.4603 5.83464 10.8334 6.20773 10.8334 6.66797Z" stroke="black" stroke-width="1.25" stroke-linecap="round" stroke-linejoin="round"/>
</svg>
