<svg width="43" height="42" viewBox="0 0 43 42" fill="none" xmlns="http://www.w3.org/2000/svg">
<rect width="40" height="40" rx="20" transform="matrix(0.99947 0.0325638 -0.0374023 0.9993 2.36719 0.621094)" fill="#33E0A0"/>
<g clip-path="url(#clip0_1732_9695)">
<path d="M19.3576 27.7646C16.5627 30.1769 12.4029 29.8666 10.0085 27.2589C8.7207 25.8562 8.12175 24.1887 8.22923 22.2835C8.33689 20.3733 9.18287 18.8077 10.5821 17.5101C9.88073 16.6904 9.19145 15.8848 8.5027 15.0793L8.51697 15.0496C8.56458 15.0511 8.61219 15.0527 8.6598 15.0543C10.1829 15.1039 11.7054 15.1535 13.2283 15.2053C13.3405 15.2089 13.4345 15.1873 13.5321 15.127C15.3412 14.0038 17.2993 13.2916 19.4038 12.9886C20.6224 12.8135 21.8448 12.7854 23.0681 12.908C25.7937 13.1815 28.2695 14.1137 30.4919 15.7097C30.5469 15.7493 30.6284 15.7673 30.6984 15.7696C32.2296 15.8222 33.7609 15.8715 35.2916 15.9214C35.3364 15.9229 35.3819 15.9243 35.4267 15.9258L35.446 15.9544C34.7021 16.7094 33.9582 17.4645 33.2041 18.2302C33.2539 18.2904 33.2994 18.3478 33.3461 18.4036C33.9451 19.1191 34.4561 19.886 34.7807 20.7712C35.9849 24.0548 34.3935 27.81 31.1893 29.2412C30.0653 29.7433 28.8937 29.9364 27.6762 29.8036C26.1531 29.6378 24.8372 29.0162 23.7305 27.9591C23.713 27.9427 23.6944 27.9273 23.6674 27.9039C22.9224 28.6589 22.1814 29.4108 21.4245 30.1786C20.7336 29.3718 20.0496 28.5719 19.3576 27.7646ZM28.2607 27.6415C30.7845 27.7155 32.8909 25.7476 32.9796 23.2334C33.0683 20.7176 31.1023 18.6226 28.5824 18.5476C26.0636 18.4727 23.9705 20.4497 23.8815 22.9869C23.7948 25.4655 25.7731 27.5681 28.2607 27.6415ZM14.7809 27.2023C17.2746 27.2901 19.4082 25.3292 19.5101 22.856C19.6146 20.3122 17.676 18.2049 15.1519 18.1089C12.6301 18.0125 10.5143 20.0096 10.4151 22.4994C10.3153 25.0055 12.2703 27.1139 14.7809 27.2023ZM26.9678 16.2163C23.6666 14.7918 20.3343 14.6827 16.9385 15.8895C19.6548 17.2023 21.4506 19.1745 21.7246 22.1598C22.2233 19.2008 24.1588 17.3513 26.9678 16.2163Z" fill="#1D1D1D"/>
<path d="M28.5314 20.6917C29.8605 20.741 30.8834 21.8545 30.8273 23.192C30.7722 24.5044 29.6451 25.5424 28.3304 25.4913C26.9948 25.439 25.9795 24.3263 26.0365 22.9773C26.0914 21.6732 27.2159 20.6433 28.5314 20.6922L28.5314 20.6917Z" fill="#1A1A1A"/>
<path d="M15.0479 20.2537C16.355 20.2887 17.4023 21.3969 17.3611 22.7026C17.3193 24.0401 16.2153 25.0908 14.8895 25.0553C13.5692 25.02 12.5244 23.9189 12.5654 22.6055C12.6075 21.2604 13.7073 20.2177 15.0473 20.2537L15.0479 20.2537Z" fill="#1A1A1A"/>
</g>
<defs>
<clipPath id="clip0_1732_9695">
<rect width="26.97" height="17.3491" fill="white" transform="matrix(0.99947 0.0325638 -0.0374023 0.9993 8.59766 12.4023)"/>
</clipPath>
</defs>
</svg>
